  0
SECTION
  2
HEADER
  9
$ACADVER
  1
AC1014
  9
$ACADMAINTVER
 70
     9
  9
$DWGCODEPAGE
  3
ANSI_1252
  9
$INSBASE
 10
0.0
 20
0.0
 30
0.0
  9
$EXTMIN
 10
-0.0244049208789079
 20
207.7866927592955
 30
0.0
  9
$EXTMAX
 10
96.9980430528376
 20
300.1764294561204
 30
0.0
  9
$LIMMIN
 10
0.0
 20
0.0
  9
$LIMMAX
 10
420.0
 20
297.0
  9
$ORTHOMODE
 70
     0
  9
$REGENMODE
 70
     1
  9
$FILLMODE
 70
     1
  9
$QTEXTMODE
 70
     0
  9
$MIRRTEXT
 70
     1
  9
$DRAGMODE
 70
     2
  9
$LTSCALE
 40
12.7
  9
$OSMODE
 70
    23
  9
$ATTMODE
 70
     1
  9
$TEXTSIZE
 40
3.5
  9
$TRACEWID
 40
1.0
  9
$TEXTSTYLE
  7
ONSHAPE-STANDARD
  9
$CLAYER
  8
0
  9
$CELTYPE
  6
BYLAYER
  9
$CECOLOR
 62
   256
  9
$CELTSCALE
 40
1.0
  9
$DELOBJ
 70
     1
  9
$DISPSILH
 70
     0
  9
$DIMSCALE
 40
1.0
  9
$DIMASZ
 40
2.5
  9
$DIMEXO
 40
0.625
  9
$DIMDLI
 40
3.75
  9
$DIMRND
 40
0.0
  9
$DIMDLE
 40
0.0
  9
$DIMEXE
 40
1.25
  9
$DIMTP
 40
0.0
  9
$DIMTM
 40
0.0
  9
$DIMTXT
 40
3.5
  9
$DIMCEN
 40
2.5
  9
$DIMTSZ
 40
0.0
  9
$DIMTOL
 70
     0
  9
$DIMLIM
 70
     0
  9
$DIMTIH
 70
     0
  9
$DIMTOH
 70
     0
  9
$DIMSE1
 70
     0
  9
$DIMSE2
 70
     0
  9
$DIMTAD
 70
     1
  9
$DIMZIN
 70
     8
  9
$DIMBLK
  1

  9
$DIMASO
 70
     1
  9
$DIMSHO
 70
     1
  9
$DIMPOST
  1

  9
$DIMAPOST
  1

  9
$DIMALT
 70
     0
  9
$DIMALTD
 70
     3
  9
$DIMALTF
 40
0.03937
  9
$DIMLFAC
 40
1.0
  9
$DIMTOFL
 70
     1
  9
$DIMTVP
 40
0.0
  9
$DIMTIX
 70
     0
  9
$DIMSOXD
 70
     0
  9
$DIMSAH
 70
     0
  9
$DIMBLK1
  1

  9
$DIMBLK2
  1

  9
$DIMSTYLE
  2
ONSHAPE-ISO-25
  9
$DIMCLRD
 70
     7
  9
$DIMCLRE
 70
     7
  9
$DIMCLRT
 70
     7
  9
$DIMTFAC
 40
1.0
  9
$DIMGAP
 40
0.625
  9
$DIMJUST
 70
     0
  9
$DIMSD1
 70
     0
  9
$DIMSD2
 70
     0
  9
$DIMTOLJ
 70
     0
  9
$DIMTZIN
 70
     8
  9
$DIMALTZ
 70
     8
  9
$DIMALTTZ
 70
     0
  9
$DIMFIT
 70
     3
  9
$DIMUPT
 70
     1
  9
$DIMUNIT
 70
     2
  9
$DIMDEC
 70
     2
  9
$DIMTDEC
 70
     2
  9
$DIMALTU
 70
     2
  9
$DIMALTTD
 70
     3
  9
$DIMTXSTY
  7
ONSHAPE-STANDARD-DIMENSION
  9
$DIMAUNIT
 70
     0
  9
$LUNITS
 70
     2
  9
$LUPREC
 70
     4
  9
$SKETCHINC
 40
1.0
  9
$FILLETRAD
 40
10.0
  9
$AUNITS
 70
     0
  9
$AUPREC
 70
     0
  9
$MENU
  1
.
  9
$ELEVATION
 40
0.0
  9
$PELEVATION
 40
0.0
  9
$THICKNESS
 40
0.0
  9
$LIMCHECK
 70
     0
  9
$CHAMFERA
 40
0.0
  9
$CHAMFERB
 40
0.0
  9
$CHAMFERC
 40
0.0
  9
$CHAMFERD
 40
0.0
  9
$SKPOLY
 70
     0
  9
$TDCREATE
 40
2459528.591386158
  9
$TDUPDATE
 40
2459528.591386493
  9
$TDINDWG
 40
0.0
  9
$TDUSRTIMER
 40
0.0
  9
$USRTIMER
 70
     1
  9
$ANGBASE
 50
0.0
  9
$ANGDIR
 70
     0
  9
$PDMODE
 70
     1
  9
$PDSIZE
 40
1.0
  9
$PLINEWID
 40
0.0
  9
$COORDS
 70
     1
  9
$SPLFRAME
 70
     0
  9
$SPLINETYPE
 70
     6
  9
$SPLINESEGS
 70
     8
  9
$ATTDIA
 70
     0
  9
$ATTREQ
 70
     1
  9
$HANDLING
 70
     1
  9
$HANDSEED
  5
133
  9
$SURFTAB1
 70
     6
  9
$SURFTAB2
 70
     6
  9
$SURFTYPE
 70
     6
  9
$SURFU
 70
     6
  9
$SURFV
 70
     6
  9
$UCSNAME
  2

  9
$UCSORG
 10
0.0
 20
0.0
 30
0.0
  9
$UCSXDIR
 10
1.0
 20
0.0
 30
0.0
  9
$UCSYDIR
 10
0.0
 20
1.0
 30
0.0
  9
$PUCSNAME
  2

  9
$PUCSORG
 10
0.0
 20
0.0
 30
0.0
  9
$PUCSXDIR
 10
1.0
 20
0.0
 30
0.0
  9
$PUCSYDIR
 10
0.0
 20
1.0
 30
0.0
  9
$USERI1
 70
     0
  9
$USERI2
 70
     0
  9
$USERI3
 70
     0
  9
$USERI4
 70
     0
  9
$USERI5
 70
     0
  9
$USERR1
 40
0.0
  9
$USERR2
 40
0.0
  9
$USERR3
 40
0.0
  9
$USERR4
 40
0.0
  9
$USERR5
 40
0.0
  9
$WORLDVIEW
 70
     1
  9
$SHADEDGE
 70
     3
  9
$SHADEDIF
 70
    70
  9
$TILEMODE
 70
     1
  9
$MAXACTVP
 70
    64
  9
$PINSBASE
 10
0.0
 20
0.0
 30
0.0
  9
$PLIMCHECK
 70
     0
  9
$PEXTMIN
 10
1.000000000000000E+20
 20
1.000000000000000E+20
 30
1.000000000000000E+20
  9
$PEXTMAX
 10
-1.000000000000000E+20
 20
-1.000000000000000E+20
 30
-1.000000000000000E+20
  9
$PLIMMIN
 10
0.0
 20
0.0
  9
$PLIMMAX
 10
420.0
 20
297.0
  9
$UNITMODE
 70
     0
  9
$VISRETAIN
 70
     1
  9
$PLINEGEN
 70
     0
  9
$PSLTSCALE
 70
     1
  9
$TREEDEPTH
 70
  3020
  9
$PICKSTYLE
 70
     1
  9
$CMLSTYLE
  2
STANDARD
  9
$CMLJUST
 70
     0
  9
$CMLSCALE
 40
20.0
  9
$PROXYGRAPHICS
 70
     1
  9
$MEASUREMENT
 70
     1
  0
ENDSEC
  0
SECTION
  2
CLASSES
  0
CLASS
  1
ACDBDICTIONARYWDFLT
  2
AcDbDictionaryWithDefault
  3
ObjectDBX Classes
 90
        0
280
     0
281
     0
  0
CLASS
  1
VISUALSTYLE
  2
AcDbVisualStyle
  3
ObjectDBX Classes
 90
     4095
280
     0
281
     0
  0
CLASS
  1
MATERIAL
  2
AcDbMaterial
  3
ObjectDBX Classes
 90
     1153
280
     0
281
     0
  0
CLASS
  1
SCALE
  2
AcDbScale
  3
ObjectDBX Classes
 90
     1153
280
     0
281
     0
  0
CLASS
  1
TABLESTYLE
  2
AcDbTableStyle
  3
ObjectDBX Classes
 90
     4095
280
     0
281
     0
  0
CLASS
  1
MLEADERSTYLE
  2
AcDbMLeaderStyle
  3
ACDB_MLEADERSTYLE_CLASS
 90
     4095
280
     0
281
     0
  0
CLASS
  1
SUN
  2
AcDbSun
  3
SCENEOE
 90
     1153
280
     0
281
     0
  0
CLASS
  1
DICTIONARYVAR
  2
AcDbDictionaryVar
  3
ObjectDBX Classes
 90
        0
280
     0
281
     0
  0
CLASS
  1
XRECORD
  2
AcDbXrecord
  3
ObjectDBX Classes
 90
        0
280
     0
281
     0
  0
CLASS
  1
LWPOLYLINE
  2
AcDbPolyline
  3
ObjectDBX Classes
 90
        0
280
     0
281
     1
  0
CLASS
  1
HATCH
  2
AcDbHatch
  3
ObjectDBX Classes
 90
        0
280
     0
281
     1
  0
CLASS
  1
ACDBPLACEHOLDER
  2
AcDbPlaceHolder
  3
ObjectDBX Classes
 90
        0
280
     0
281
     0
  0
CLASS
  1
LAYOUT
  2
AcDbLayout
  3
ObjectDBX Classes
 90
        0
280
     0
281
     0
  0
ENDSEC
  0
SECTION
  2
TABLES
  0
TABLE
  2
VPORT
  5
8
102
{ACAD_XDICTIONARY
360
128
102
}
330
0
100
AcDbSymbolTable
 70
     1
  0
VPORT
  5
29
330
8
100
AcDbSymbolTableRecord
100
AcDbViewportTableRecord
  2
*ACTIVE
 70
     0
 10
0.0
 20
0.0
 11
1.0
 21
1.0
 12
48.48681906597932
 22
253.9815611077079
 13
0.0
 23
0.0
 14
10.0
 24
10.0
 15
10.0
 25
10.0
 16
0.0
 26
0.0
 36
1.0
 17
0.0
 27
0.0
 37
0.0
 40
94.2375314307614
 41
1.050143137566175
 42
50.0
 43
0.0
 44
0.0
 50
0.0
 51
0.0
 71
     0
 72
   100
 73
     1
 74
     3
 75
     0
 76
     0
 77
     0
 78
     0
  0
ENDTAB
  0
TABLE
  2
LTYPE
  5
5
330
0
100
AcDbSymbolTable
 70
     1
  0
LTYPE
  5
14
330
5
100
AcDbSymbolTableRecord
100
AcDbLinetypeTableRecord
  2
BYBLOCK
 70
     0
  3

 72
    65
 73
     0
 40
0.0
  0
LTYPE
  5
15
330
5
100
AcDbSymbolTableRecord
100
AcDbLinetypeTableRecord
  2
BYLAYER
 70
     0
  3

 72
    65
 73
     0
 40
0.0
  0
LTYPE
  5
16
330
5
100
AcDbSymbolTableRecord
100
AcDbLinetypeTableRecord
  2
CONTINUOUS
 70
     0
  3
Solid line
 72
    65
 73
     0
 40
0.0
  0
ENDTAB
  0
TABLE
  2
LAYER
  5
2
330
0
100
AcDbSymbolTable
 70
     4
  0
LAYER
  5
10
330
2
100
AcDbSymbolTableRecord
100
AcDbLayerTableRecord
  2
0
 70
     0
 62
     7
  6
CONTINUOUS
  0
LAYER
  5
73
330
2
100
AcDbSymbolTableRecord
100
AcDbLayerTableRecord
  2
VISIBLE
 70
     0
 62
     1
  6
CONTINUOUS
  0
LAYER
  5
92
330
2
100
AcDbSymbolTableRecord
100
AcDbLayerTableRecord
  2
ANNOTATION_TEXT
 70
     0
 62
     5
  6
CONTINUOUS
  0
LAYER
  5
97
330
2
100
AcDbSymbolTableRecord
100
AcDbLayerTableRecord
  2
SKETCHED_GEOMETRY
 70
     0
 62
     1
  6
CONTINUOUS
  0
ENDTAB
  0
TABLE
  2
STYLE
  5
3
330
0
100
AcDbSymbolTable
 70
    27
  0
STYLE
  5
11
330
3
100
AcDbSymbolTableRecord
100
AcDbTextStyleTableRecord
  2
STANDARD
 70
     0
 40
0.0
 41
1.0
 50
0.0
 71
     0
 42
3.5
  3
txt
  4

  0
STYLE
  5
70
330
3
100
AcDbSymbolTableRecord
100
AcDbTextStyleTableRecord
  2
ONSHAPE-STANDARD
 70
     0
 40
0.0
 41
1.0
 50
0.0
 71
     0
 42
3.5
  3
NotoSans-Regular.ttf
  4

1001
ACAD
1000
Noto Sans
1071
        0
  0
STYLE
  5
72
330
3
100
AcDbSymbolTableRecord
100
AcDbTextStyleTableRecord
  2
ONSHAPE-STANDARD-DIMENSION
 70
     0
 40
0.0
 41
1.0
 50
0.0
 71
     0
 42
3.5
  3

  4

1001
ACAD
1000
Noto Sans
1071
        0
  0
STYLE
  5
95
330
3
100
AcDbSymbolTableRecord
100
AcDbTextStyleTableRecord
  2
ONSHAPE-STANDARD-VIEW-LABE
 70
     0
 40
3.5
 41
1.0
 50
0.0
 71
     0
 42
3.5
  3
Noto Sans
  4

1001
ACAD
1000
Noto Sans
1071
        0
  0
STYLE
  5
9F
330
3
100
AcDbSymbolTableRecord
100
AcDbTextStyleTableRecord
  2
ONSHAPE-STANDARD-NOTESTYLE
 70
     0
 40
3.5
 41
1.0
 50
0.0
 71
     0
 42
3.5
  3
Noto Sans
  4

1001
ACAD
1000
Noto Sans
1071
        0
  0
STYLE
  5
BE
330
3
100
AcDbSymbolTableRecord
100
AcDbTextStyleTableRecord
  2
ONSHAPE-STANDARD-BOLD
 70
     0
 40
0.0
 41
1.0
 50
0.0
 71
     0
 42
3.5
  3
NotoSans-Bold.ttf
  4

1001
ACAD
1000
Noto Sans
1071
 33554432
  0
STYLE
  5
BF
330
3
100
AcDbSymbolTableRecord
100
AcDbTextStyleTableRecord
  2
ONSHAPE-STANDARD-FIELDS
 70
     0
 40
0.0
 41
1.0
 50
0.0
 71
     0
 42
3.5
  3

  4

1001
ACAD
1000
Noto Sans
1071
        0
  0
STYLE
  5
C0
330
3
100
AcDbSymbolTableRecord
100
AcDbTextStyleTableRecord
  2
ONSHAPE-STANDARD-TCFIELDS
 70
     0
 40
0.0
 41
1.0
 50
0.0
 71
     0
 42
3.5
  3
NotoSansTC-Regular.otf
  4

1001
ACAD
1000
Noto Sans TC
1071
        0
  0
STYLE
  5
C1
330
3
100
AcDbSymbolTableRecord
100
AcDbTextStyleTableRecord
  2
ONSHAPE-STANDARD-SCFIELDS
 70
     0
 40
0.0
 41
1.0
 50
0.0
 71
     0
 42
3.5
  3
NotoSansSC-Regular.otf
  4

1001
ACAD
1000
Noto Sans SC
1071
        0
  0
STYLE
  5
C2
330
3
100
AcDbSymbolTableRecord
100
AcDbTextStyleTableRecord
  2
ONSHAPE-STANDARD-KOREANFIE
 70
     0
 40
0.0
 41
1.0
 50
0.0
 71
     0
 42
3.5
  3
NotoSansKR-Regular.otf
  4

1001
ACAD
1000
Noto Sans KR
1071
        0
  0
STYLE
  5
C4
330
3
100
AcDbSymbolTableRecord
100
AcDbTextStyleTableRecord
  2
TTFSTYLE
 70
     0
 40
0.0
 41
1.0
 50
0.0
 71
     0
 42
3.5
  3
Verdana.ttf
  4

1001
ACAD
1000
Verdana
1071
       34
  0
STYLE
  5
C5
330
3
100
AcDbSymbolTableRecord
100
AcDbTextStyleTableRecord
  2
ONSHAPE-STANDARD-GTOLERANC
 70
     0
 40
0.0
 41
1.0
 50
0.0
 71
     0
 42
3.5
  3

  4

1001
ACAD
1000
Noto Sans
1071
        0
  0
STYLE
  5
C6
330
3
100
AcDbSymbolTableRecord
100
AcDbTextStyleTableRecord
  2
ONSHAPE-STANDARD-TABLE-DAT
 70
     0
 40
0.0
 41
1.0
 50
0.0
 71
     0
 42
3.5
  3
NotoSans-Regular.ttf
  4

1001
ACAD
1000
Noto Sans
1071
        0
  0
STYLE
  5
C7
330
3
100
AcDbSymbolTableRecord
100
AcDbTextStyleTableRecord
  2
ONSHAPE-STANDARD-TABLE-TIT
 70
     0
 40
0.0
 41
1.0
 50
0.0
 71
     0
 42
3.5
  3
NotoSans-Bold.ttf
  4

1001
ACAD
1000
Noto Sans
1071
 33554432
  0
STYLE
  5
C8
330
3
100
AcDbSymbolTableRecord
100
AcDbTextStyleTableRecord
  2
ONSHAPE-STANDARD-TABLE-HEA
 70
     0
 40
0.0
 41
1.0
 50
0.0
 71
     0
 42
3.5
  3
NotoSans-Bold.ttf
  4

1001
ACAD
1000
Noto Sans
1071
 33554432
  0
STYLE
  5
C9
330
3
100
AcDbSymbolTableRecord
100
AcDbTextStyleTableRecord
  2
ONSHAPE-STANDARD-BOMTABLE-
 70
     0
 40
0.0
 41
1.0
 50
0.0
 71
     0
 42
3.5
  3
NotoSans-Regular.ttf
  4

1001
ACAD
1000
Noto Sans
1071
        0
  0
STYLE
  5
CA
330
3
100
AcDbSymbolTableRecord
100
AcDbTextStyleTableRecord
  2
ONSHAPE-STANDARD-BOMTABLE0
 70
     0
 40
0.0
 41
1.0
 50
0.0
 71
     0
 42
3.5
  3
NotoSans-Bold.ttf
  4

1001
ACAD
1000
Noto Sans
1071
 33554432
  0
STYLE
  5
CB
330
3
100
AcDbSymbolTableRecord
100
AcDbTextStyleTableRecord
  2
ONSHAPE-STANDARD-BOMTABLE1
 70
     0
 40
0.0
 41
1.0
 50
0.0
 71
     0
 42
3.5
  3
NotoSans-Bold.ttf
  4

1001
ACAD
1000
Noto Sans
1071
 33554432
  0
STYLE
  5
CD
330
3
100
AcDbSymbolTableRecord
100
AcDbTextStyleTableRecord
  2
ONSHAPE-STANDARD-HOLE-CALL
 70
     0
 40
3.5
 41
1.0
 50
0.0
 71
     0
 42
3.5
  3
Noto Sans
  4

1001
ACAD
1000
Noto Sans
1071
        0
  0
STYLE
  5
CE
330
3
100
AcDbSymbolTableRecord
100
AcDbTextStyleTableRecord
  2
ONSHAPE-STANDARD-HOLETABLE
 70
     0
 40
0.0
 41
1.0
 50
0.0
 71
     0
 42
3.5
  3
NotoSans-Regular.ttf
  4

1001
ACAD
1000
Noto Sans
1071
        0
  0
STYLE
  5
CF
330
3
100
AcDbSymbolTableRecord
100
AcDbTextStyleTableRecord
  2
ONSHAPE-STANDARD-HOLETABL0
 70
     0
 40
0.0
 41
1.0
 50
0.0
 71
     0
 42
3.5
  3
NotoSans-Bold.ttf
  4

1001
ACAD
1000
Noto Sans
1071
 33554432
  0
STYLE
  5
D0
330
3
100
AcDbSymbolTableRecord
100
AcDbTextStyleTableRecord
  2
ONSHAPE-STANDARD-HOLETABL1
 70
     0
 40
0.0
 41
1.0
 50
0.0
 71
     0
 42
3.5
  3
NotoSans-Bold.ttf
  4

1001
ACAD
1000
Noto Sans
1071
 33554432
  0
STYLE
  5
D1
330
3
100
AcDbSymbolTableRecord
100
AcDbTextStyleTableRecord
  2
ONSHAPE-STANDARD-HOLE-TAG
 70
     0
 40
3.5
 41
1.0
 50
0.0
 71
     0
 42
3.5
  3
Noto Sans
  4

1001
ACAD
1000
Noto Sans
1071
        0
  0
STYLE
  5
D2
330
3
100
AcDbSymbolTableRecord
100
AcDbTextStyleTableRecord
  2
ONSHAPE-STANDARD-REVISIONT
 70
     0
 40
0.0
 41
1.0
 50
0.0
 71
     0
 42
3.5
  3
NotoSans-Regular.ttf
  4

1001
ACAD
1000
Noto Sans
1071
        0
  0
STYLE
  5
D3
330
3
100
AcDbSymbolTableRecord
100
AcDbTextStyleTableRecord
  2
ONSHAPE-STANDARD-REVISION0
 70
     0
 40
0.0
 41
1.0
 50
0.0
 71
     0
 42
3.5
  3
NotoSans-Bold.ttf
  4

1001
ACAD
1000
Noto Sans
1071
 33554432
  0
STYLE
  5
D4
330
3
100
AcDbSymbolTableRecord
100
AcDbTextStyleTableRecord
  2
ONSHAPE-STANDARD-REVISION1
 70
     0
 40
0.0
 41
1.0
 50
0.0
 71
     0
 42
3.5
  3
NotoSans-Bold.ttf
  4

1001
ACAD
1000
Noto Sans
1071
 33554432
  0
STYLE
  5
D5
330
3
100
AcDbSymbolTableRecord
100
AcDbTextStyleTableRecord
  2
ONSHAPE-STANDARD-REVISION-
 70
     0
 40
3.5
 41
1.0
 50
0.0
 71
     0
 42
3.5
  3
Noto Sans
  4

1001
ACAD
1000
Noto Sans
1071
        0
  0
ENDTAB
  0
TABLE
  2
VIEW
  5
6
330
0
100
AcDbSymbolTable
 70
     0
  0
ENDTAB
  0
TABLE
  2
UCS
  5
7
330
0
100
AcDbSymbolTable
 70
     0
  0
ENDTAB
  0
TABLE
  2
APPID
  5
9
330
0
100
AcDbSymbolTable
 70
     2
  0
APPID
  5
12
330
9
100
AcDbSymbolTableRecord
100
AcDbRegAppTableRecord
  2
ACAD
 70
     0
  0
APPID
  5
132
330
9
100
AcDbSymbolTableRecord
100
AcDbRegAppTableRecord
  2
ACAD_MLEADERVER
 70
     0
  0
ENDTAB
  0
TABLE
  2
DIMSTYLE
  5
A
330
0
100
AcDbSymbolTable
 70
    18
  0
DIMSTYLE
105
27
330
A
100
AcDbSymbolTableRecord
100
AcDbDimStyleTableRecord
  2
ISO-25
 70
     0
  3

  4

  5

  6

  7

 40
1.0
 41
2.5
 42
0.625
 43
3.75
 44
1.25
 45
0.0
 46
0.0
 47
0.0
 48
0.0
140
2.5
141
2.5
142
0.0
143
0.03937007874016
144
1.0
145
0.0
146
1.0
147
0.625
 71
     0
 72
     0
 73
     0
 74
     0
 75
     0
 76
     0
 77
     1
 78
     8
170
     0
171
     3
172
     1
173
     0
174
     0
175
     0
176
     0
177
     0
178
     0
270
     2
271
     2
272
     2
273
     2
274
     3
340
11
275
     0
280
     0
281
     0
282
     0
283
     0
284
     8
285
     0
286
     0
287
     3
288
     0
  0
DIMSTYLE
105
71
330
A
100
AcDbSymbolTableRecord
100
AcDbDimStyleTableRecord
  2
ONSHAPE-ISO-25
 70
     0
  3

  4

  5

  6

  7

 40
1.0
 41
2.5
 42
0.625
 43
3.75
 44
1.25
 45
0.0
 46
0.0
 47
0.0
 48
0.0
140
3.5
141
2.5
142
0.0
143
0.03937
144
1.0
145
0.0
146
1.0
147
0.625
 71
     0
 72
     0
 73
     0
 74
     0
 75
     0
 76
     0
 77
     1
 78
     8
170
     0
171
     3
172
     1
173
     0
174
     0
175
     0
176
     7
177
     7
178
     7
179
     1
270
     2
271
     2
272
     2
273
     2
274
     3
340
72
275
     0
280
     0
281
     0
282
     0
283
     0
284
     8
285
     8
286
     0
287
     3
288
     1
  0
DIMSTYLE
105
D8
330
A
100
AcDbSymbolTableRecord
100
AcDbDimStyleTableRecord
  2
ISO
 70
     0
  3

  4
"
  5

  6

  7

 40
1.0
 41
3.5
 42
1.0
 43
10.0
 44
1.0
 45
0.0
 46
0.0
 47
0.1
 48
0.1
140
3.5
141
0.0
142
0.0
143
0.03937
144
1.0
145
0.0
146
0.71
147
1.5
 71
     0
 72
     0
 73
     0
 74
     0
 75
     0
 76
     0
 77
     1
 78
     8
170
     0
171
     3
172
     1
173
     0
174
     0
175
     0
176
     7
177
     7
178
     7
270
     2
271
     2
272
     3
273
     2
274
     3
340
11
275
     0
280
     0
281
     0
282
     0
283
     0
284
     8
285
     8
286
     0
287
     3
288
     1
  0
DIMSTYLE
105
D9
330
A
100
AcDbSymbolTableRecord
100
AcDbDimStyleTableRecord
  2
ISO$3
 70
     0
  3

  4
"
  5

  6

  7

 40
1.0
 41
3.5
 42
1.0
 43
10.0
 44
1.0
 45
0.0
 46
0.0
 47
0.1
 48
0.1
140
3.5
141
0.0
142
0.0
143
0.03937
144
1.0
145
0.0
146
0.71
147
1.5
 71
     0
 72
     0
 73
     0
 74
     1
 75
     0
 76
     0
 77
     1
 78
     8
170
     0
171
     3
172
     0
173
     0
174
     0
175
     0
176
     7
177
     7
178
     7
270
     2
271
     2
272
     3
273
     2
274
     3
340
11
275
     0
280
     0
281
     0
282
     0
283
     0
284
     8
285
     8
286
     0
288
     1
  0
DIMSTYLE
105
DA
330
A
100
AcDbSymbolTableRecord
100
AcDbDimStyleTableRecord
  2
ISO$4
 70
     0
  3

  4
"
  5

  6

  7

 40
1.0
 41
3.5
 42
1.0
 43
10.0
 44
1.0
 45
0.0
 46
0.0
 47
0.1
 48
0.1
140
3.5
141
0.0
142
0.0
143
0.03937
144
1.0
145
0.0
146
0.71
147
1.5
 71
     0
 72
     0
 73
     0
 74
     0
 75
     0
 76
     0
 77
     1
 78
     8
170
     0
171
     3
172
     1
173
     0
174
     0
175
     0
176
     7
177
     7
178
     7
270
     2
271
     2
272
     3
273
     2
274
     3
340
11
275
     0
280
     0
281
     0
282
     0
283
     0
284
     8
285
     8
286
     0
287
     3
288
     1
  0
DIMSTYLE
105
DB
330
A
100
AcDbSymbolTableRecord
100
AcDbDimStyleTableRecord
  2
ISO$6
 70
     0
  3

  4
"
  5

  6

  7

 40
1.0
 41
0.5
 42
1.0
 43
10.0
 44
1.0
 45
0.0
 46
0.0
 47
0.1
 48
0.1
140
3.5
141
0.0
142
0.0
143
0.03937
144
1.0
145
0.0
146
0.71
147
1.5
 71
     0
 72
     0
 73
     0
 74
     0
 75
     0
 76
     0
 77
     0
 78
     8
170
     0
171
     3
172
     1
173
     0
174
     0
175
     0
176
     7
177
     7
178
     7
270
     2
271
     2
272
     3
273
     2
274
     3
340
11
275
     0
280
     0
281
     0
282
     0
283
     0
284
     8
285
     8
286
     0
287
     3
288
     1
  0
DIMSTYLE
105
DC
330
A
100
AcDbSymbolTableRecord
100
AcDbDimStyleTableRecord
  2
ISO$7
 70
     0
  3

  4
"
  5

  6

  7

 40
1.0
 41
3.5
 42
1.0
 43
10.0
 44
1.0
 45
0.0
 46
0.0
 47
0.1
 48
0.1
140
3.5
141
0.0
142
0.0
143
0.03937
144
1.0
145
0.0
146
0.71
147
1.5
 71
     0
 72
     0
 73
     0
 74
     0
 75
     0
 76
     0
 77
     1
 78
     8
170
     0
171
     3
172
     1
173
     0
174
     0
175
     0
176
     7
177
     7
178
     7
270
     2
271
     2
272
     3
273
     2
274
     3
340
11
275
     0
280
     0
281
     0
282
     0
283
     0
284
     8
285
     8
286
     0
287
     3
288
     1
  0
DIMSTYLE
105
DD
330
A
100
AcDbSymbolTableRecord
100
AcDbDimStyleTableRecord
  2
ISO$SF
 70
     0
  3

  4
"
  5

  6

  7

 40
1.0
 41
3.5
 42
1.0
 43
10.0
 44
1.0
 45
0.0
 46
0.0
 47
0.1
 48
0.1
140
3.5
141
0.0
142
0.0
143
0.03937
144
1.0
145
0.0
146
0.71
147
1.5
 71
     0
 72
     0
 73
     0
 74
     0
 75
     1
 76
     1
 77
     1
 78
     8
170
     0
171
     3
172
     1
173
     0
174
     0
175
     0
176
     7
177
     7
178
     7
270
     2
271
     2
272
     3
273
     2
274
     3
340
11
275
     0
280
     0
281
     0
282
     0
283
     0
284
     8
285
     8
286
     0
287
     3
288
     1
  0
DIMSTYLE
105
DE
330
A
100
AcDbSymbolTableRecord
100
AcDbDimStyleTableRecord
  2
ISO$SH
 70
     0
  3

  4
"
  5

  6

  7

 40
1.0
 41
3.5
 42
1.0
 43
10.0
 44
1.0
 45
0.0
 46
0.0
 47
0.1
 48
0.1
140
3.5
141
0.0
142
0.0
143
0.03937
144
2.0
145
0.0
146
0.71
147
1.5
 71
     0
 72
     0
 73
     0
 74
     0
 75
     1
 76
     1
 77
     1
 78
     8
170
     0
171
     3
172
     1
173
     1
174
     0
175
     0
176
     7
177
     7
178
     7
270
     2
271
     2
272
     3
273
     2
274
     3
340
11
275
     0
280
     0
281
     0
282
     0
283
     0
284
     8
285
     8
286
     0
287
     3
288
     1
  0
DIMSTYLE
105
E1
330
A
100
AcDbSymbolTableRecord
100
AcDbDimStyleTableRecord
  2
ONSHAPE-ISO-25$0
 70
     0
  3

  4

  5

  6

  7

 40
1.0
 41
2.5
 42
0.625
 43
3.75
 44
1.25
 45
0.0
 46
0.0
 47
0.0
 48
0.0
140
3.5
141
2.5
142
0.0
143
0.03937
144
1.0
145
0.0
146
1.0
147
0.625
 71
     0
 72
     0
 73
     0
 74
     0
 75
     0
 76
     0
 77
     1
 78
     8
170
     0
171
     3
172
     1
173
     0
174
     0
175
     0
176
     7
177
     7
178
     7
179
     1
270
     2
271
     2
272
     2
273
     2
274
     3
340
72
275
     0
280
     0
281
     0
282
     0
283
     0
284
     8
285
     8
286
     0
287
     3
288
     1
  0
DIMSTYLE
105
E2
330
A
100
AcDbSymbolTableRecord
100
AcDbDimStyleTableRecord
  2
ONSHAPE-ISO-25$2
 70
     0
  3

  4

  5

  6

  7

 40
1.0
 41
2.5
 42
0.625
 43
3.75
 44
1.25
 45
0.0
 46
0.0
 47
0.0
 48
0.0
140
3.5
141
2.5
142
0.0
143
0.03937
144
1.0
145
0.0
146
1.0
147
0.625
 71
     0
 72
     0
 73
     0
 74
     0
 75
     0
 76
     0
 77
     1
 78
     8
170
     0
171
     3
172
     1
173
     0
174
     0
175
     0
176
     7
177
     7
178
     7
179
     1
270
     2
271
     2
272
     2
273
     2
274
     3
340
72
275
     0
280
     0
281
     0
282
     0
283
     0
284
     8
285
     8
286
     0
287
     3
288
     1
  0
DIMSTYLE
105
E3
330
A
100
AcDbSymbolTableRecord
100
AcDbDimStyleTableRecord
  2
ONSHAPE-ISO-25$3
 70
     0
  3

  4

  5

  6

  7

 40
1.0
 41
2.5
 42
0.625
 43
3.75
 44
1.25
 45
0.0
 46
0.0
 47
0.0
 48
0.0
140
3.5
141
0.0
142
0.0
143
0.03937
144
1.0
145
0.0
146
1.0
147
0.625
 71
     0
 72
     0
 73
     0
 74
     0
 75
     0
 76
     0
 77
     1
 78
     8
170
     0
171
     3
172
     1
173
     0
174
     0
175
     0
176
     7
177
     7
178
     7
179
     1
270
     2
271
     2
272
     2
273
     2
274
     3
340
72
275
     0
280
     0
281
     0
282
     0
283
     0
284
     8
285
     8
286
     0
287
     3
288
     1
  0
DIMSTYLE
105
E4
330
A
100
AcDbSymbolTableRecord
100
AcDbDimStyleTableRecord
  2
ONSHAPE-ISO-25$4
 70
     0
  3

  4

  5

  6

  7

 40
1.0
 41
2.5
 42
0.625
 43
3.75
 44
1.25
 45
0.0
 46
0.0
 47
0.0
 48
0.0
140
3.5
141
0.0
142
0.0
143
0.03937
144
1.0
145
0.0
146
1.0
147
0.625
 71
     0
 72
     0
 73
     0
 74
     0
 75
     0
 76
     0
 77
     1
 78
     8
170
     0
171
     3
172
     1
173
     0
174
     0
175
     0
176
     7
177
     7
178
     7
179
     1
270
     2
271
     2
272
     2
273
     2
274
     3
340
72
275
     0
280
     0
281
     0
282
     0
283
     0
284
     8
285
     8
286
     0
287
     3
288
     1
  0
DIMSTYLE
105
E5
330
A
100
AcDbSymbolTableRecord
100
AcDbDimStyleTableRecord
  2
ONSHAPE-ISO-25$6
 70
     0
  3

  4

  5

  6

  7

 40
1.0
 41
0.5
 42
0.625
 43
3.75
 44
1.25
 45
0.0
 46
0.0
 47
0.0
 48
0.0
140
3.5
141
2.5
142
0.0
143
0.03937
144
1.0
145
0.0
146
1.0
147
0.625
 71
     0
 72
     0
 73
     0
 74
     0
 75
     0
 76
     0
 77
     1
 78
     8
170
     0
171
     3
172
     1
173
     0
174
     0
175
     0
176
     7
177
     7
178
     7
179
     1
270
     2
271
     2
272
     2
273
     2
274
     3
340
72
275
     0
280
     0
281
     0
282
     0
283
     0
284
     8
285
     8
286
     0
287
     3
288
     1
  0
DIMSTYLE
105
E6
330
A
100
AcDbSymbolTableRecord
100
AcDbDimStyleTableRecord
  2
ONSHAPE-ISO-25$7
 70
     0
  3

  4

  5

  6

  7

 40
1.0
 41
2.5
 42
0.625
 43
3.75
 44
1.25
 45
0.0
 46
0.0
 47
0.0
 48
0.0
140
3.5
141
2.5
142
0.0
143
0.03937
144
1.0
145
0.0
146
1.0
147
0.625
 71
     0
 72
     0
 73
     0
 74
     0
 75
     0
 76
     0
 77
     1
 78
     8
170
     0
171
     3
172
     1
173
     0
174
     0
175
     0
176
     7
177
     7
178
     7
179
     1
270
     2
271
     2
272
     2
273
     2
274
     3
340
72
275
     0
280
     0
281
     0
282
     0
283
     0
284
     8
285
     8
286
     0
287
     3
288
     1
  0
DIMSTYLE
105
E7
330
A
100
AcDbSymbolTableRecord
100
AcDbDimStyleTableRecord
  2
ONSHAPE-STANDARD-GTOLERANC
 70
     0
  3

  4

  5

  6

  7

 40
1.0
 41
2.5
 42
0.625
 43
3.75
 44
1.25
 45
0.0
 46
0.0
 47
0.0
 48
0.0
140
3.5
141
2.5
142
0.0
143
0.03937
144
1.0
145
0.0
146
1.0
147
0.625
 71
     0
 72
     0
 73
     0
 74
     0
 75
     0
 76
     0
 77
     1
 78
     8
170
     0
171
     3
172
     1
173
     0
174
     0
175
     0
176
     7
177
     7
178
     7
179
     1
270
     2
271
     2
272
     2
273
     2
274
     3
340
C5
275
     0
280
     0
281
     0
282
     0
283
     0
284
     8
285
     8
286
     0
287
     3
288
     1
  0
DIMSTYLE
105
E9
330
A
100
AcDbSymbolTableRecord
100
AcDbDimStyleTableRecord
  2
ONSHAPE-ORDINATESTYLE
 70
     0
  3

  4

  5

  6

  7

 40
1.0
 41
2.5
 42
0.625
 43
3.75
 44
1.25
 45
0.0
 46
0.0
 47
0.0
 48
0.0
140
3.5
141
2.5
142
0.0
143
0.03937
144
1.0
145
0.0
146
1.0
147
0.625
 71
     0
 72
     0
 73
     0
 74
     0
 75
     0
 76
     0
 77
     1
 78
     8
170
     0
171
     3
172
     1
173
     0
174
     0
175
     0
176
     7
177
     7
178
     7
179
     1
270
     2
271
     2
272
     2
273
     2
274
     3
340
72
275
     0
280
     0
281
     0
282
     0
283
     0
284
     8
285
     8
286
     0
287
     3
288
     1
  0
DIMSTYLE
105
EA
330
A
100
AcDbSymbolTableRecord
100
AcDbDimStyleTableRecord
  2
ONSHAPE-CHAMFERDIMSTYLE
 70
     0
  3

  4

  5

  6

  7

 40
1.0
 41
2.5
 42
0.625
 43
3.75
 44
1.25
 45
0.0
 46
0.0
 47
0.0
 48
0.0
140
3.5
141
2.5
142
0.0
143
0.03937
144
1.0
145
0.0
146
1.0
147
0.625
 71
     0
 72
     0
 73
     0
 74
     0
 75
     0
 76
     0
 77
     1
 78
     8
170
     0
171
     3
172
     1
173
     0
174
     0
175
     0
176
     7
177
     7
178
     7
179
     1
270
     2
271
     2
272
     2
273
     2
274
     3
340
72
275
     0
280
     0
281
     0
282
     0
283
     0
284
     8
285
     8
286
     0
287
     3
288
     1
  0
ENDTAB
  0
TABLE
  2
BLOCK_RECORD
  5
1
330
0
100
AcDbSymbolTable
 70
     0
  0
BLOCK_RECORD
  5
1F
330
1
100
AcDbSymbolTableRecord
100
AcDbBlockTableRecord
  2
*MODEL_SPACE
  0
BLOCK_RECORD
  5
1B
330
1
100
AcDbSymbolTableRecord
100
AcDbBlockTableRecord
  2
*PAPER_SPACE
  0
ENDTAB
  0
ENDSEC
  0
SECTION
  2
BLOCKS
  0
BLOCK
  5
20
330
1F
100
AcDbEntity
  8
0
100
AcDbBlockBegin
  2
*MODEL_SPACE
 70
     0
 10
0.0
 20
0.0
 30
0.0
  3
*MODEL_SPACE
  1

  0
ENDBLK
  5
21
330
1F
100
AcDbEntity
  8
0
100
AcDbBlockEnd
  0
BLOCK
  5
1C
330
1B
100
AcDbEntity
 67
     1
  8
0
100
AcDbBlockBegin
  2
*PAPER_SPACE
 70
     0
 10
0.0
 20
0.0
 30
0.0
  3
*PAPER_SPACE
  1

  0
ENDBLK
  5
1D
330
1B
100
AcDbEntity
 67
     1
  8
0
100
AcDbBlockEnd
  0
ENDSEC
  0
SECTION
  2
ENTITIES
  0
ARC
  5
75
330
1F
100
AcDbEntity
  8
VISIBLE
100
AcDbCircle
 10
4.79549902152646
 20
210.1986301369864
 30
0.0
 40
71.58910531638176
100
AcDbArc
 50
12.09475707701208
 51
77.90524292298807
  0
LINE
  5
76
330
1F
100
AcDbEntity
  8
VISIBLE
100
AcDbLine
 10
19.79549902152625
 20
225.1986301369864
 30
0.0
 11
59.79549902152647
 21
225.1986301369864
 31
0.0
  0
CIRCLE
  5
77
330
1F
100
AcDbEntity
  8
VISIBLE
100
AcDbCircle
 10
9.795499021526474
 20
291.3986301369864
 30
0.0
 40
1.500000000000001
  0
CIRCLE
  5
78
330
1F
100
AcDbEntity
  8
VISIBLE
100
AcDbCircle
 10
9.795499021526474
 20
265.9986301369864
 30
0.0
 40
1.500000000000001
  0
CIRCLE
  5
79
330
1F
100
AcDbEntity
  8
VISIBLE
100
AcDbCircle
 10
9.795499021526474
 20
240.5986301369864
 30
0.0
 40
1.500000000000001
  0
CIRCLE
  5
7A
330
1F
100
AcDbEntity
  8
VISIBLE
100
AcDbCircle
 10
79.79549902152648
 20
215.1986301369864
 30
0.0
 40
1.500000000000001
  0
CIRCLE
  5
7B
330
1F
100
AcDbEntity
  8
VISIBLE
100
AcDbCircle
 10
69.7954990215265
 20
215.1986301369864
 30
0.0
 40
1.500000000000001
  0
CIRCLE
  5
7C
330
1F
100
AcDbEntity
  8
VISIBLE
100
AcDbCircle
 10
59.79549902152648
 20
215.1986301369864
 30
0.0
 40
1.5
  0
CIRCLE
  5
7D
330
1F
100
AcDbEntity
  8
VISIBLE
100
AcDbCircle
 10
49.79549902152648
 20
215.1986301369864
 30
0.0
 40
1.5
  0
CIRCLE
  5
7E
330
1F
100
AcDbEntity
  8
VISIBLE
100
AcDbCircle
 10
39.79549902152648
 20
215.1986301369864
 30
0.0
 40
1.5
  0
CIRCLE
  5
7F
330
1F
100
AcDbEntity
  8
VISIBLE
100
AcDbCircle
 10
29.79549902152648
 20
215.1986301369864
 30
0.0
 40
1.500000000000001
  0
CIRCLE
  5
80
330
1F
100
AcDbEntity
  8
VISIBLE
100
AcDbCircle
 10
19.79549902152648
 20
215.1986301369864
 30
0.0
 40
1.500000000000001
  0
CIRCLE
  5
81
330
1F
100
AcDbEntity
  8
VISIBLE
100
AcDbCircle
 10
9.795499021526474
 20
215.1986301369864
 30
0.0
 40
1.500000000000001
  0
CIRCLE
  5
82
330
1F
100
AcDbEntity
  8
VISIBLE
100
AcDbCircle
 10
62.4633558407905
 20
243.4931827951773
 30
0.0
 40
1.5
  0
CIRCLE
  5
83
330
1F
100
AcDbEntity
  8
VISIBLE
100
AcDbCircle
 10
51.88110694388519
 20
257.2842380593452
 30
0.0
 40
1.5
  0
CIRCLE
  5
84
330
1F
100
AcDbEntity
  8
VISIBLE
100
AcDbCircle
 10
38.09005167971737
 20
267.8664869562505
 30
0.0
 40
1.5
  0
LINE
  5
85
330
1F
100
AcDbEntity
  8
VISIBLE
100
AcDbLine
 10
59.79549902152647
 20
225.1986301369864
 30
0.0
 11
19.79549902152626
 21
265.1986301369865
 31
0.0
  0
LINE
  5
86
330
1F
100
AcDbEntity
  8
VISIBLE
100
AcDbLine
 10
19.79549902152626
 20
265.1986301369865
 30
0.0
 11
19.79549902152625
 21
225.1986301369864
 31
0.0
  0
LINE
  5
87
330
1F
100
AcDbEntity
  8
VISIBLE
100
AcDbLine
 10
82.29549902152647
 20
225.1986301369864
 30
0.0
 11
74.79549902152647
 21
225.1986301369864
 31
0.0
  0
ARC
  5
88
330
1F
100
AcDbEntity
  8
VISIBLE
100
AcDbCircle
 10
82.29549902152647
 20
217.6986301369864
 30
0.0
 40
7.499999999999996
100
AcDbArc
 50
0.0
 51
90.0
  0
LINE
  5
89
330
1F
100
AcDbEntity
  8
VISIBLE
100
AcDbLine
 10
89.79549902152647
 20
210.1986301369864
 30
0.0
 11
89.79549902152647
 21
217.6986301369864
 31
0.0
  0
LINE
  5
8A
330
1F
100
AcDbEntity
  8
VISIBLE
100
AcDbLine
 10
4.795499021526481
 20
210.1986301369864
 30
0.0
 11
89.79549902152647
 21
210.1986301369864
 31
0.0
  0
LINE
  5
8B
330
1F
100
AcDbEntity
  8
VISIBLE
100
AcDbLine
 10
4.795499021526467
 20
295.1986301369864
 30
0.0
 11
4.795499021526481
 21
210.1986301369864
 31
0.0
  0
LINE
  5
8C
330
1F
100
AcDbEntity
  8
VISIBLE
100
AcDbLine
 10
4.795499021526467
 20
295.1986301369864
 30
0.0
 11
12.2954990215262
 21
295.1986301369864
 31
0.0
  0
ARC
  5
8D
330
1F
100
AcDbEntity
  8
VISIBLE
100
AcDbCircle
 10
12.2954990215262
 20
287.6986301369864
 30
0.0
 40
7.500000000000007
100
AcDbArc
 50
0.0
 51
90.0
  0
LINE
  5
8E
330
1F
100
AcDbEntity
  8
VISIBLE
100
AcDbLine
 10
19.79549902152625
 20
287.6986301369864
 30
0.0
 11
19.79549902152625
 21
280.1986301369865
 31
0.0
  0
LINE
  5
96
330
1F
100
AcDbEntity
  8
SKETCHED_GEOMETRY
100
AcDbLine
 10
-0.0244049208789079
 20
207.7866927592955
 30
0.0
 11
96.9980430528376
 21
207.7866927592955
 31
0.0
  0
LINE
  5
9A
330
1F
100
AcDbEntity
  8
SKETCHED_GEOMETRY
100
AcDbLine
 10
96.9980430528376
 20
207.7866927592955
 30
0.0
 11
96.9980430528376
 21
300.1764294561204
 31
0.0
  0
LWPOLYLINE
  5
A2
330
1F
100
AcDbEntity
  8
ANNOTATION_TEXT
  6
CONTINUOUS
100
AcDbPolyline
 90
       13
 70
     1
 43
0.0
 10
12.94192612657775
 20
250.2863308307161
 10
13.30296154892108
 20
250.2863308307161
 10
13.43579533638702
 20
250.8721618933864
 10
17.42080896036522
 20
250.8721618933864
 10
17.56045473693198
 20
250.2863308307161
 10
17.9214901592753
 20
250.2863308307161
 10
17.9214901592753
 20
252.0846959533319
 10
17.56045473693198
 20
252.0846959533319
 10
17.42080896036522
 20
251.4988648906616
 10
13.43579533638702
 20
251.4988648906616
 10
13.30296154892108
 20
252.0846959533319
 10
12.94192612657775
 20
252.0846959533319
 10
12.94192612657775
 20
250.2863308307161
  0
LWPOLYLINE
  5
A3
330
1F
100
AcDbEntity
  8
ANNOTATION_TEXT
  6
CONTINUOUS
100
AcDbPolyline
 90
       58
 70
     1
 43
0.0
 10
12.94192612657775
 20
246.8599003130049
 10
12.94192612657775
 20
246.2536332830322
 10
15.37721223011999
 20
246.2536332830322
 10
15.70503920559683
 20
246.2749207489722
 10
15.98688525464315
 20
246.3387831467924
 10
15.98688525464315
 20
246.3387831467924
 10
16.22530487317176
 20
246.4418144819423
 10
16.41604056799465
 20
246.5874207489722
 10
16.41604056799465
 20
246.5874207489722
 10
16.56164683502462
 20
246.7764534465199
 10
16.66467817017449
 20
247.0097640732229
 10
16.66467817017449
 20
247.0097640732229
 10
16.72854056799465
 20
247.2873526290812
 10
16.7498280339347
 20
247.6092191140948
 10
16.7498280339347
 20
247.6092191140948
 10
16.74024867426168
 20
247.7942071931139
 10
16.7115105952426
 20
247.9711060350758
 10
16.66361379687748
 20
248.1399156399804
 10
16.59655827916631
 20
248.3006360078278
 10
16.59655827916631
 20
248.3006360078278
 10
16.5131114126813
 20
248.4487967707706
 10
16.41263457344424
 20
248.5799275609613
 10
16.41263457344424
 20
248.5799275609613
 10
16.29938525464315
 20
248.6931768797624
 10
16.17080896036522
 20
248.7876932285363
 10
16.17080896036522
 20
248.7876932285363
 10
16.17080896036522
 20
248.8217531740403
 10
16.68170814292653
 20
248.9137150269014
 10
16.68170814292653
 20
249.4075842367106
 10
12.94192612657775
 20
249.4075842367106
 10
12.94192612657775
 20
248.7945052176371
 10
14.87993702576032
 20
248.7945052176371
 10
15.21287299306277
 20
248.7783267435226
 10
15.49642203938429
 20
248.7297913211793
 10
15.49642203938429
 20
248.7297913211793
 10
15.73058416472489
 20
248.6488989506071
 10
15.91535936908457
 20
248.535649631806
 10
15.91535936908457
 20
248.535649631806
 10
16.05500514565133
 20
248.385785871588
 10
16.05500514565133
 20
248.385785871588
 10
16.15377898761318
 20
248.1950501767651
 10
16.15377898761318
 20
248.1950501767651
 10
16.21508688952053
 20
247.9668485418878
 10
16.23552285682299
 20
247.6977749724055
 10
16.23552285682299
 20
247.6977749724055
 10
16.22104737998375
 20
247.4968212939314
 10
16.17762094946604
 20
247.3231155718605
 10
16.17762094946604
 20
247.3231155718605
 10
16.10864955982026
 20
247.1800638007433
 10
16.01072721649601
 20
247.0642599860294
 10
16.01072721649601
 20
247.0642599860294
 10
15.88385391949329
 20
246.9748526290812
 10
15.72802966881209
 20
246.9109902312611
 10
15.72802966881209
 20
246.9109902312611
 10
15.54580896036522
 20
246.8726727925689
 10
15.33293430096468
 20
246.8599003130049
 10
15.33293430096468
 20
246.8599003130049
 10
12.94192612657775
 20
246.8599003130049
  0
LWPOLYLINE
  5
A4
330
1F
100
AcDbEntity
  8
ANNOTATION_TEXT
  6
CONTINUOUS
100
AcDbPolyline
 90
       77
 70
     1
 43
0.0
 10
12.87380623556958
 20
243.5969575337134
 10
12.88636584047421
 20
243.3208591004709
 10
12.92404465518811
 20
243.0681768797624
 10
12.98684267971127
 20
242.838910871588
 10
13.07475991404369
 20
242.6330610759477
 10
13.07475991404369
 20
242.6330610759477
 10
13.61971904210909
 20
242.6330610759477
 10
13.52435119469765
 20
242.8725450677733
 10
13.45623130368947
 20
243.1141578061929
 10
13.41535936908457
 20
243.3578992912066
 10
13.40173539088293
 20
243.6037695228142
 10
13.40173539088293
 20
243.6037695228142
 10
13.42387435546059
 20
243.852407124994
 10
13.49029124919356
 20
244.0669847816698
 10
13.49029124919356
 20
244.0669847816698
 10
13.60183757071944
 20
244.2509084873919
 10
13.75936481867585
 20
244.4007722476098
 10
13.75936481867585
 20
244.4007722476098
 10
13.95946699851236
 20
244.5199820568741
 10
14.19873811567857
 20
244.6051319206343
 10
14.19873811567857
 20
244.6051319206343
 10
14.47802966881209
 20
244.6536673429777
 10
14.79819315655051
 20
244.6698458170921
 10
14.79819315655051
 20
244.6698458170921
 10
15.12772312930255
 20
244.6536673429777
 10
15.41467817017449
 20
244.6051319206343
 10
15.41467817017449
 20
244.6051319206343
 10
15.65820678052871
 20
244.5199820568741
 10
15.85745746172762
 20
244.4007722476098
 10
15.85745746172762
 20
244.4007722476098
 10
16.01072721649601
 20
244.2509084873919
 10
16.01072721649601
 20
244.2509084873919
 10
16.1231250366595
 20
244.0601727925689
 10
16.1231250366595
 20
244.0601727925689
 10
16.19209642630528
 20
243.831119659054
 10
16.21508688952053
 20
243.5663035827597
 10
16.21508688952053
 20
243.5663035827597
 10
16.20401740723171
 20
243.3906819887542
 10
16.17080896036522
 20
243.197604672678
 10
16.11546154892108
 20
242.9870716345308
 10
16.03797517289928
 20
242.7590828743128
 10
16.03797517289928
 20
242.7590828743128
 10
16.54887435546059
 20
242.5717531740403
 10
16.62891522739519
 20
242.7693008579641
 10
16.69192612657775
 20
243.0145324655935
 10
16.69192612657775
 20
243.0145324655935
 10
16.73535255709547
 20
243.2819030378006
 10
16.7498280339347
 20
243.5526796045581
 10
16.7498280339347
 20
243.5526796045581
 10
16.74173879687748
 20
243.7576779015608
 10
16.71747108570582
 20
243.9503294683183
 10
16.67702490041972
 20
244.1306343048305
 10
16.62040024101917
 20
244.2985924110976
 10
16.62040024101917
 20
244.2985924110976
 10
16.54930010477939
 20
244.4544166617788
 10
16.46202149442517
 20
244.5983199315335
 10
16.3585644099565
 20
244.7303022203619
 10
16.23892885137339
 20
244.8503635282638
 10
16.23892885137339
 20
244.8503635282638
 10
15.95708280232707
 20
245.0496142094627
 10
15.62244383774942
 20
245.1909629833046
 10
15.62244383774942
 20
245.1909629833046
 10
15.23416045900282
 20
245.2752613484273
 10
14.79138116744969
 20
245.3033608034681
 10
14.79138116744969
 20
245.3033608034681
 10
14.35456236635977
 20
245.2752613484273
 10
13.97053648080119
 20
245.1909629833046
 10
13.97053648080119
 20
245.1909629833046
 10
13.64270950532435
 20
245.0504657081003
 10
13.36767544537885
 20
244.8537695228142
 10
13.36767544537885
 20
244.8537695228142
 10
13.15054329279029
 20
244.6068349179096
 10
12.99642203938429
 20
244.3156223838496
 10
12.99642203938429
 20
244.3156223838496
 10
12.90446018652326
 20
243.9792804219967
 10
12.87380623556958
 20
243.5969575337134
 10
12.87380623556958
 20
243.5969575337134
  0
LWPOLYLINE
  5
A5
330
1F
100
AcDbEntity
  8
ANNOTATION_TEXT
  6
CONTINUOUS
100
AcDbPolyline
 90
       60
 70
     1
 43
0.0
 10
12.94192612657775
 20
239.1998185691357
 10
12.94192612657775
 20
238.5935515391629
 10
15.37721223011999
 20
238.5935515391629
 10
15.71014819742244
 20
238.6156905037406
 10
15.99369724374397
 20
238.6821073974736
 10
15.99369724374397
 20
238.6821073974736
 10
16.22871086772217
 20
238.7885447271738
 10
16.41604056799465
 20
238.9375569887542
 10
16.41604056799465
 20
238.9375569887542
 10
16.55909233911181
 20
239.1316986781275
 10
16.66127217562408
 20
239.3667123021057
 10
16.66127217562408
 20
239.3667123021057
 10
16.72258007753143
 20
239.6434493593264
 10
16.74301604483389
 20
239.9627613484273
 10
16.74301604483389
 20
239.9627613484273
 10
16.73343668516086
 20
240.1503039233591
 10
16.70469860614179
 20
240.3280542639586
 10
16.65680180777666
 20
240.4960123702256
 10
16.58974629006549
 20
240.6541782421602
 10
16.58974629006549
 20
240.6541782421602
 10
16.50459642630528
 20
240.7989330105526
 10
16.40582258434342
 20
240.9266578061929
 10
16.40582258434342
 20
240.9266578061929
 10
16.29257326554233
 20
241.0365011304436
 10
16.1639969712644
 20
241.127611484667
 10
16.1639969712644
 20
241.127611484667
 10
16.1639969712644
 20
241.1684834192719
 10
16.40411958706822
 20
241.1429384601439
 10
16.68852013202735
 20
241.1344234737678
 10
16.68852013202735
 20
241.1344234737678
 10
18.24165364701372
 20
241.1344234737678
 10
18.24165364701372
 20
241.7475024928414
 10
12.94192612657775
 20
241.7475024928414
 10
12.94192612657775
 20
241.1344234737678
 10
14.8731250366595
 20
241.1344234737678
 10
15.21116999578756
 20
241.1182449996534
 10
15.49642203938429
 20
241.0697095773101
 10
15.49642203938429
 20
241.0697095773101
 10
15.7331386606377
 20
240.9879657081003
 10
15.91876536363498
 20
240.8721618933864
 10
15.91876536363498
 20
240.8721618933864
 10
16.05585664428893
 20
240.7205951358932
 10
16.15377898761318
 20
240.5315624383455
 10
16.15377898761318
 20
240.5315624383455
 10
16.21508688952053
 20
240.3042123021057
 10
16.23552285682299
 20
240.0376932285362
 10
16.23552285682299
 20
240.0376932285362
 10
16.22104737998375
 20
239.8367395500621
 10
16.17762094946604
 20
239.6630338279913
 10
16.17762094946604
 20
239.6630338279913
 10
16.10864955982026
 20
239.5199820568741
 10
16.01072721649601
 20
239.4041782421602
 10
16.01072721649601
 20
239.4041782421602
 10
15.88385391949329
 20
239.314770885212
 10
15.72802966881209
 20
239.2509084873918
 10
15.72802966881209
 20
239.2509084873918
 10
15.54580896036522
 20
239.2125910486997
 10
15.33293430096468
 20
239.1998185691357
 10
15.33293430096468
 20
239.1998185691357
 10
12.94192612657775
 20
239.1998185691357
  0
LWPOLYLINE
  5
A6
330
1F
100
AcDbEntity
  8
ANNOTATION_TEXT
  6
CONTINUOUS
100
AcDbPolyline
 90
       64
 70
     1
 43
0.0
 10
12.87380623556958
 20
235.8449139369831
 10
12.88743021377121
 20
235.498353991479
 10
12.92830214837612
 20
235.2011809669559
 10
12.92830214837612
 20
235.2011809669559
 10
13.00238252984751
 20
234.9193349179095
 10
13.1156318486486
 20
234.618755898836
 10
13.1156318486486
 20
234.618755898836
 10
13.65377898761318
 20
234.618755898836
 10
13.52520269333525
 20
234.956800857964
 10
13.44601332003825
 20
235.2488648906616
 10
13.44601332003825
 20
235.2488648906616
 10
13.40769588134615
 20
235.5256019478823
 10
13.39492340178211
 20
235.8176659805798
 10
13.39492340178211
 20
235.8176659805798
 10
13.41535936908457
 20
236.0841850541493
 10
13.47666727099192
 20
236.3183471794899
 10
13.47666727099192
 20
236.3183471794899
 10
13.57969860614179
 20
236.5175978606888
 10
13.72530487317176
 20
236.6861945909341
 10
13.72530487317176
 20
236.6861945909341
 10
13.90837708025623
 20
236.8215828743128
 10
14.1306182246704
 20
236.9212082149123
 10
14.1306182246704
 20
236.9212082149123
 10
14.39202830641427
 20
236.9842191140948
 10
14.69260732548784
 20
237.0097640732229
 10
14.69260732548784
 20
237.0097640732229
 10
14.69260732548784
 20
234.4484561713155
 10
15.06386073148239
 20
234.4484561713155
 10
15.43170814292653
 20
234.4748526290812
 10
15.75868361976577
 20
234.5540420023782
 10
15.75868361976577
 20
234.5540420023782
 10
16.0456386606377
 20
234.6851727925689
 10
16.29342476417994
 20
234.8673935010158
 10
16.29342476417994
 20
234.8673935010158
 10
16.49267544537884
 20
235.0955951358932
 10
16.63402421922081
 20
235.3578567162747
 10
16.63402421922081
 20
235.3578567162747
 10
16.72087708025623
 20
235.6575842367106
 10
16.7498280339347
 20
235.9913717026507
 10
16.7498280339347
 20
235.9913717026507
 10
16.71576808843061
 20
236.352407124994
 10
16.61358825191835
 20
236.6725706127324
 10
16.61358825191835
 20
236.6725706127324
 10
16.44754601758593
 20
236.9552681604164
 10
16.21508688952053
 20
237.1970937734954
 10
16.21508688952053
 20
237.1970937734954
 10
15.92642885137339
 20
237.3937899587815
 10
15.59178988679574
 20
237.5342872339858
 10
15.59178988679574
 20
237.5342872339858
 10
15.21116999578756
 20
237.6160311031956
 10
14.78456917834887
 20
237.6432790595989
 10
14.78456917834887
 20
237.6432790595989
 10
14.36222585409819
 20
237.6134766072828
 10
13.98756645355323
 20
237.5240692503346
 10
13.98756645355323
 20
237.5240692503346
 10
13.66059097671399
 20
237.3750569887542
 10
13.38129942358048
 20
237.1664398225417
 10
13.38129942358048
 20
237.1664398225417
 10
13.15820678052871
 20
236.9050297407978
 10
12.9998280339347
 20
236.5976387326234
 10
12.9998280339347
 20
236.5976387326234
 10
12.90531168516086
 20
236.2442667980185
 10
12.87380623556958
 20
235.8449139369831
 10
12.87380623556958
 20
235.8449139369831
  0
LWPOLYLINE
  5
A7
330
1F
100
AcDbEntity
  8
ANNOTATION_TEXT
  6
CONTINUOUS
100
AcDbPolyline
 90
       26
 70
     1
 43
0.0
 10
16.24914683502462
 20
235.9981836917515
 10
16.23211686227258
 20
235.7963785146398
 10
16.18102694401645
 20
235.6201182966561
 10
16.18102694401645
 20
235.6201182966561
 10
16.09587708025623
 20
235.4651455446125
 10
15.97666727099192
 20
235.3340147544218
 10
15.97666727099192
 20
235.3340147544218
 10
15.82424901486113
 20
235.2318349179095
 10
15.63947381050146
 20
235.1569030378005
 10
15.63947381050146
 20
235.1569030378005
 10
15.42574765246331
 20
235.1100706127324
 10
15.17966454619628
 20
235.0921891413428
 10
15.17966454619628
 20
235.0921891413428
 10
15.17966454619628
 20
236.9961400950212
 10
15.41723266608729
 20
236.9595256536043
 10
15.62584983229983
 20
236.8973662530594
 10
15.62584983229983
 20
236.8973662530594
 10
15.8097735380219
 20
236.8088103947488
 10
15.9664492873407
 20
236.6930065800349
 10
15.9664492873407
 20
236.6930065800349
 10
16.08906509115541
 20
236.5550638007433
 10
16.17762094946604
 20
236.3932790595989
 10
16.17762094946604
 20
236.3932790595989
 10
16.23126536363498
 20
236.2076523566016
 10
16.24914683502462
 20
235.9981836917515
 10
16.24914683502462
 20
235.9981836917515
  0
LWPOLYLINE
  5
A8
330
1F
100
AcDbEntity
  8
ANNOTATION_TEXT
  6
CONTINUOUS
100
AcDbPolyline
 90
      116
 70
     1
 43
0.0
 10
13.9739424753516
 20
231.0663035827597
 10
14.21747108570582
 20
231.0927000405253
 10
14.42353375600555
 20
231.1718894138224
 10
14.42353375600555
 20
231.1718894138224
 10
14.6014969712644
 20
231.3072776972011
 10
14.76072721649601
 20
231.502270885212
 10
14.76072721649601
 20
231.502270885212
 10
14.83714921922081
 20
231.6282926835771
 10
14.91655146717721
 20
231.7849684328959
 10
14.99893396036522
 20
231.9722981331684
 10
15.08429669878484
 20
232.1902817843946
 10
15.08429669878484
 20
232.1902817843946
 10
15.19690739360773
 20
232.4736179560567
 10
15.29631985954778
 20
232.7003294683183
 10
15.382534096605
 20
232.8704163211793
 10
15.45555010477939
 20
232.9838785146398
 10
15.45555010477939
 20
232.9838785146398
 10
15.52792748897557
 20
233.0588103947488
 10
15.60881985954778
 20
233.1133063075553
 10
15.60881985954778
 20
233.1133063075553
 10
15.69822721649601
 20
233.143960258509
 10
15.79614955982026
 20
233.1541782421602
 10
15.79614955982026
 20
233.1541782421602
 10
15.89492340178212
 20
233.143960258509
 10
15.89492340178212
 20
233.143960258509
 10
15.98347926009274
 20
233.1064943184545
 10
15.98347926009274
 20
233.1064943184545
 10
16.06011413747694
 20
233.043483419272
 10
16.12653103120991
 20
232.9566305582365
 10
16.12653103120991
 20
232.9566305582365
 10
16.18017544537884
 20
232.8467872339858
 10
16.21849288407094
 20
232.7148049451575
 10
16.21849288407094
 20
232.7148049451575
 10
16.2414833472862
 20
232.5572776972011
 10
16.24914683502462
 20
232.377611484667
 10
16.24914683502462
 20
232.377611484667
 10
16.23424560886658
 20
232.1423849860294
 10
16.18954193039247
 20
231.8931087598714
 10
16.11503579960228
 20
231.6297828061929
 10
16.01072721649601
 20
231.352407124994
 10
16.01072721649601
 20
231.352407124994
 10
16.49778443720446
 20
231.1446414574191
 10
16.60805351077394
 20
231.427339005103
 10
16.68681713475214
 20
231.7202545364381
 10
16.73407530913906
 20
232.0233880514245
 10
16.7498280339347
 20
232.3367395500621
 10
16.7498280339347
 20
232.3367395500621
 10
16.73279806118266
 20
232.6466850541493
 10
16.68170814292653
 20
232.9225706127324
 10
16.68170814292653
 20
232.9225706127324
 10
16.59996427371672
 20
233.160990231261
 10
16.48416045900282
 20
233.3653499042856
 10
16.48416045900282
 20
233.3653499042856
 10
16.33855419197285
 20
233.5296891413428
 10
16.16740296581481
 20
233.6480474519695
 10
16.16740296581481
 20
233.6480474519695
 10
15.97496427371672
 20
233.7170188416153
 10
15.75868361976577
 20
233.7400093048305
 10
15.75868361976577
 20
233.7400093048305
 10
15.51941250259955
 20
233.7153158443401
 10
15.31931032276304
 20
233.6412354628687
 10
15.31931032276304
 20
233.6412354628687
 10
15.1473075979674
 20
233.5109561713155
 10
14.9923348459238
 20
233.3244779696807
 10
14.9923348459238
 20
233.3244779696807
 10
14.91697721649601
 20
233.1976046726779
 10
14.8339560993298
 20
233.0315624383455
 10
14.74327149442517
 20
232.8263512666834
 10
14.64492340178212
 20
232.5819711576916
 10
14.64492340178212
 20
232.5819711576916
 10
14.54891693039247
 20
232.3429129151847
 10
14.45844520014724
 20
232.1434493593264
 10
14.37350821104642
 20
231.9835804901166
 10
14.29410596309002
 20
231.8633063075553
 10
14.29410596309002
 20
231.8633063075553
 10
14.21236209388021
 20
231.7738989506071
 10
14.12380623556958
 20
231.7100365527869
 10
14.12380623556958
 20
231.7100365527869
 10
14.02503239360773
 20
231.6717191140948
 10
13.91944656254506
 20
231.6589466345308
 10
13.91944656254506
 20
231.6589466345308
 10
13.79938525464315
 20
231.6725706127324
 10
13.69124492766767
 20
231.7134425473373
 10
13.69124492766767
 20
231.7134425473373
 10
13.59843157616904
 20
231.7781564437951
 10
13.51753920559683
 20
231.8701182966561
 10
13.51753920559683
 20
231.8701182966561
 10
13.45197381050146
 20
231.9918826018333
 10
13.40514138543334
 20
232.1460038552392
 10
13.40514138543334
 20
232.1460038552392
 10
13.37704193039247
 20
232.3290760623237
 10
13.36767544537885
 20
232.5445052176371
 10
13.36767544537885
 20
232.5445052176371
 10
13.38640841540609
 20
232.8333761304436
 10
13.44260732548784
 20
233.1277817843946
 10
13.53627217562408
 20
233.4277221794899
 10
13.66740296581481
 20
233.7331973157297
 10
13.66740296581481
 20
233.7331973157297
 10
13.10881985954778
 20
233.7331973157297
 10
13.00600139905732
 20
233.4962678198169
 10
12.93255964156413
 20
233.2214466345308
 10
12.88849458706822
 20
232.9087337598714
 10
12.87380623556958
 20
232.5581291958387
 10
12.87380623556958
 20
232.5581291958387
 10
12.89168770695923
 20
232.2243417298986
 10
12.94533212112816
 20
231.9314261985635
 10
12.94533212112816
 20
231.9314261985635
 10
13.03473947807639
 20
231.6751251086452
 10
13.15990977780391
 20
231.4579929560567
 10
13.15990977780391
 20
231.4579929560567
 10
13.31828852439792
 20
231.2876932285363
 10
13.5073212219456
 20
231.1650774247215
 10
13.5073212219456
 20
231.1650774247215
 10
13.72615637180936
 20
231.0909970432501
 10
13.9739424753516
 20
231.0663035827597
 10
13.9739424753516
 20
231.0663035827597
  0
LWPOLYLINE
  5
A9
330
1F
100
AcDbEntity
  8
ANNOTATION_TEXT
  6
CONTINUOUS
100
AcDbPolyline
 90
       90
 70
     1
 43
0.0
 10
39.08530783258772
 20
223.403219098098
 10
39.35651014866402
 20
223.3861891253459
 10
39.63537595247873
 20
223.3350992070898
 10
39.92190524403187
 20
223.2499493433296
 10
40.21609802332342
 20
223.1307395340653
 10
40.21609802332342
 20
223.1307395340653
 10
40.46814162005366
 20
223.662074683929
 10
40.16245360915448
 20
223.7902252288881
 10
39.83122063912724
 20
223.8817613324304
 10
39.47444270997192
 20
223.9366829945557
 10
39.09211982168854
 20
223.9549902152642
 10
39.09211982168854
 20
223.9549902152642
 10
38.73619339117083
 20
223.9354057465993
 10
38.40410892250598
 20
223.8766523406048
 10
38.09586641569399
 20
223.7787299972805
 10
37.81146587073486
 20
223.6416387166266
 10
37.81146587073486
 20
223.6416387166266
 10
37.55516478081661
 20
223.4679329945557
 10
37.33122063912724
 20
223.2601673269808
 10
37.33122063912724
 20
223.2601673269808
 10
37.14218794157955
 20
223.0217477084522
 10
36.98380919498555
 20
222.7492681444195
 10
36.98380919498555
 20
222.7492681444195
 10
36.86012901787383
 20
222.4478376267083
 10
36.7717860342226
 20
222.1225651471443
 10
36.71878024403187
 20
221.7734507057274
 10
36.70111164730162
 20
221.4004943024576
 10
36.70111164730162
 20
221.4004943024576
 10
36.71026525765585
 20
221.1024697792969
 10
36.73772608871852
 20
220.8214752288881
 10
36.78349414048963
 20
220.5575106512315
 10
36.84756941296919
 20
220.3105760463268
 10
36.84756941296919
 20
220.3105760463268
 10
36.93165490343241
 20
220.0825872861089
 10
37.03404761460408
 20
219.8720542479617
 10
37.15474754648418
 20
219.6789769318854
 10
37.29375469907274
 20
219.50335533788
 10
37.29375469907274
 20
219.50335533788
 10
37.45000469907274
 20
219.3468924632206
 10
37.62243317318718
 20
219.2112913051824
 10
37.81104012141606
 20
219.0965518637655
 10
38.01582554375939
 20
219.0026741389699
 10
38.01582554375939
 20
219.0026741389699
 10
38.23508644294195
 20
218.9296581307955
 10
38.47052581623895
 20
218.8775038392424
 10
38.72214366365039
 20
218.8462112643105
 10
38.98993998517628
 20
218.8357804059999
 10
38.98993998517628
 20
218.8357804059999
 10
39.3492724102444
 20
218.8468498882887
 10
39.66432690615721
 20
218.8800583351552
 10
39.66432690615721
 20
218.8800583351552
 10
39.96320292795557
 20
218.9396632397873
 10
40.27399993068037
 20
219.036734084474
 10
40.27399993068037
 20
219.036734084474
 10
40.27399993068037
 20
219.5816932125394
 10
39.95021757373214
 20
219.4952661008228
 10
39.64303944021715
 20
219.4335324495966
 10
39.35246553013541
 20
219.3964922588609
 10
39.07849584348691
 20
219.3841455286157
 10
39.07849584348691
 20
219.3841455286157
 10
38.68936096610271
 20
219.4165024768446
 10
38.34620701514903
 20
219.5135733215312
 10
38.34620701514903
 20
219.5135733215312
 10
38.19378875901824
 20
219.5865893297056
 10
38.05329148381389
 20
219.6762095613132
 10
37.92471518953595
 20
219.7824340163541
 10
37.80805987618446
 20
219.9052626948282
 10
37.80805987618446
 20
219.9052626948282
 10
37.61136369089835
 20
220.1947722316129
 10
37.47086641569399
 20
220.5387776812042
 10
37.47086641569399
 20
220.5387776812042
 10
37.38912254648418
 20
220.9381305422397
 10
37.36187459008092
 20
221.3936823133568
 10
37.36187459008092
 20
221.3936823133568
 10
37.38997404512178
 20
221.8356101062724
 10
37.4742724102444
 20
222.228150978207
 10
37.4742724102444
 20
222.228150978207
 10
37.61902717863677
 20
222.5713049291606
 10
37.82168385438609
 20
222.8650719591334
 10
37.82168385438609
 20
222.8650719591334
 10
37.9413194129692
 20
222.9910937574985
 10
38.07202445384113
 20
223.1000855831116
 10
38.21379897700189
 20
223.1920474359726
 10
38.36664298245149
 20
223.2669793160816
 10
38.36664298245149
 20
223.2669793160816
 10
38.5303435955305
 20
223.3265842207138
 10
38.70468794157955
 20
223.3691591525939
 10
38.88967602059863
 20
223.3947041117219
 10
39.08530783258772
 20
223.403219098098
 10
39.08530783258772
 20
223.403219098098
  0
LWPOLYLINE
  5
AA
330
1F
100
AcDbEntity
  8
ANNOTATION_TEXT
  6
CONTINUOUS
100
AcDbPolyline
 90
      108
 70
     1
 43
0.0
 10
46.03353671542151
 20
218.9039002970081
 10
46.63980374539426
 20
218.9039002970081
 10
46.63980374539426
 20
221.3391864005503
 10
46.61936777809181
 20
221.6729738664903
 10
46.55805987618445
 20
221.9590774087247
 10
46.55805987618445
 20
221.9590774087247
 10
46.4601375328602
 20
222.1966455286157
 10
46.32304625220625
 20
222.3848267275258
 10
46.32304625220625
 20
222.3848267275258
 10
46.145934535585
 20
222.5278784986429
 10
45.92795088435884
 20
222.6300583351552
 10
45.92795088435884
 20
222.6300583351552
 10
45.67250129307818
 20
222.6913662370625
 10
45.37617976719262
 20
222.711802204365
 10
45.37617976719262
 20
222.711802204365
 10
45.18374107509454
 20
222.7015842207138
 10
45.00152036664767
 20
222.6709302697601
 10
44.82951764185203
 20
222.619840351504
 10
44.66773290070761
 20
222.5483144659454
 10
44.66773290070761
 20
222.5483144659454
 10
44.51957213776483
 20
222.4580556103595
 10
44.3884413475741
 20
222.3507667820217
 10
44.3884413475741
 20
222.3507667820217
 10
44.2743405301354
 20
222.2264479809318
 10
44.17726968544876
 20
222.0850992070898
 10
44.17726968544876
 20
222.0850992070898
 10
44.14320973994467
 20
222.0850992070898
 10
44.06572336392287
 20
222.2315569727574
 10
43.96950401787382
 20
222.3575787711225
 10
43.96950401787382
 20
222.3575787711225
 10
43.85710619771034
 20
222.4665705967356
 10
43.7242724102444
 20
222.5551264550462
 10
43.7242724102444
 20
222.5551264550462
 10
43.57164127945421
 20
222.6236720953732
 10
43.39985142931797
 20
222.6726332670353
 10
43.20890285983568
 20
222.7020099700326
 10
42.99879557100734
 20
222.711802204365
 10
42.99879557100734
 20
222.711802204365
 10
42.82253535302369
 20
222.702222844692
 10
42.65479012141606
 20
222.6734847656729
 10
42.49555987618445
 20
222.6255879673078
 10
42.34484461732887
 20
222.5585324495966
 10
42.34484461732887
 20
222.5585324495966
 10
42.20690183803731
 20
222.4733825858364
 10
42.0859890314978
 20
222.3746087438745
 10
42.0859890314978
 20
222.3746087438745
 10
41.98210619771034
 20
222.2613594250734
 10
41.89525333667492
 20
222.1327831307955
 10
41.89525333667492
 20
222.1327831307955
 10
41.86119339117083
 20
222.1327831307955
 10
41.7692315383098
 20
222.6436823133568
 10
41.27536232850053
 20
222.6436823133568
 10
41.27536232850053
 20
218.9039002970081
 10
41.8884413475741
 20
218.9039002970081
 10
41.8884413475741
 20
220.8419111961906
 10
41.90291682441334
 20
221.1774016594059
 10
41.94634325493104
 20
221.461802204365
 10
41.94634325493104
 20
221.461802204365
 10
42.02212663367764
 20
221.6959643297056
 10
42.12686096610271
 20
221.8807395340653
 10
42.12686096610271
 20
221.8807395340653
 10
42.26310074811906
 20
222.0169793160816
 10
42.26310074811906
 20
222.0169793160816
 10
42.4368064701899
 20
222.1157531580435
 10
42.4368064701899
 20
222.1157531580435
 10
42.64457213776483
 20
222.1770610599508
 10
42.88639775084386
 20
222.1974970272533
 10
42.88639775084386
 20
222.1974970272533
 10
43.07032145656593
 20
222.1830215504141
 10
43.22699720588473
 20
222.1395951198963
 10
43.22699720588473
 20
222.1395951198963
 10
43.35983099335066
 20
222.0714752288881
 10
43.46541682441334
 20
221.9761073814767
 10
43.46541682441334
 20
221.9761073814767
 10
43.54630919498554
 20
221.8500855831116
 10
43.60506260098009
 20
221.6968158283432
 10
43.60506260098009
 20
221.6968158283432
 10
43.64082554375938
 20
221.5188526130843
 10
43.65274652468582
 20
221.311938444147
 10
43.65274652468582
 20
221.311938444147
 10
43.65274652468582
 20
218.9039002970081
 10
44.26241954920898
 20
218.9039002970081
 10
44.26241954920898
 20
220.9679329945557
 10
44.27774652468582
 20
221.2582940299781
 10
44.32372745111633
 20
221.5094861280707
 10
44.32372745111633
 20
221.5094861280707
 10
44.40036232850053
 20
221.7215092888337
 10
44.50765115683841
 20
221.8943635122669
 10
44.50765115683841
 20
221.8943635122669
 10
44.64729693340517
 20
222.0254943024576
 10
44.82100265547601
 20
222.1191591525939
 10
44.82100265547601
 20
222.1191591525939
 10
45.02961982168854
 20
222.1779125585884
 10
45.27399993068037
 20
222.1974970272533
 10
45.27399993068037
 20
222.1974970272533
 10
45.45026014866401
 20
222.1830215504141
 10
45.60438140207001
 20
222.1395951198963
 10
45.60438140207001
 20
222.1395951198963
 10
45.73551219226075
 20
222.0714752288881
 10
45.84280102059862
 20
221.9761073814767
 10
45.84280102059862
 20
221.9761073814767
 10
45.92624788708363
 20
221.8500855831116
 10
45.98585279171579
 20
221.6968158283432
 10
45.98585279171579
 20
221.6968158283432
 10
46.02161573449508
 20
221.5188526130843
 10
46.03353671542151
 20
221.311938444147
 10
46.03353671542151
 20
221.311938444147
 10
46.03353671542151
 20
218.9039002970081
  0
LWPOLYLINE
  5
AB
330
1F
100
AcDbEntity
  8
ANNOTATION_TEXT
  6
CONTINUOUS
100
AcDbPolyline
 90
       90
 70
     1
 43
0.0
 10
32.44124355252086
 20
265.4246251677432
 10
32.72880673260831
 20
265.0985275581633
 10
32.9865057298391
 20
264.7252252724551
 10
33.21434054421324
 20
264.3047183106187
 10
33.41231117573072
 20
263.8370066726541
 10
33.41231117573072
 20
263.8370066726541
 10
34.29860305405718
 20
264.1529889944921
 10
34.09774234032776
 20
264.6438212901523
 10
33.82655629277461
 20
265.1221298962274
 10
33.48504491139774
 20
265.5879148127175
 10
33.07320819619712
 20
266.0411760396225
 10
33.07320819619712
 20
266.0411760396225
 10
32.6483661110428
 20
266.4217035308604
 10
32.20618353261688
 20
266.7309423275374
 10
31.74666046091936
 20
266.9688924296533
 10
31.26979689595023
 20
267.1355538372082
 10
31.26979689595023
 20
267.1355538372082
 10
30.78329972360799
 20
267.2289998287274
 10
30.29487582979112
 20
267.2473036827363
 10
30.29487582979112
 20
267.2473036827363
 10
29.81126873966081
 20
267.1914287599723
 10
29.32380820658126
 20
267.0623384211725
 10
29.32380820658126
 20
267.0623384211725
 10
28.84285035847855
 20
266.8612368672588
 10
28.37489788032956
 20
266.5931817421019
 10
27.91995077213426
 20
266.2581730457018
 10
27.47800903389267
 20
265.8562107780587
 10
27.47800903389267
 20
265.8562107780587
 10
27.15118890375978
 20
265.5086783920736
 10
26.86434824422532
 20
265.1597009649826
 10
26.61748705528928
 20
264.8092784967856
 10
26.41060533695167
 20
264.4574109874825
 10
26.41060533695167
 20
264.4574109874825
 10
26.24779737234604
 20
264.104339277258
 10
26.1254505587075
 20
263.750304206296
 10
26.04356489603603
 20
263.3953057745968
 10
26.00214038433164
 20
263.0393439821602
 10
26.00214038433164
 20
263.0393439821602
 10
26.00189954414732
 20
262.6855497513826
 10
26.04356489603603
 20
262.3370540046602
 10
26.12713643999779
 20
261.9938567419931
 10
26.2526141760326
 20
261.6559579633811
 10
26.2526141760326
 20
261.6559579633811
 10
26.41807138266583
 20
261.325284390299
 10
26.6254347813721
 20
260.9999093012721
 10
26.87470437215142
 20
260.6798326963004
 10
27.16588015500378
 20
260.3650545753839
 10
27.16588015500378
 20
260.3650545753839
 10
27.58494207573423
 20
259.9710400338235
 10
27.97895661729458
 20
259.6521676297734
 10
27.97895661729458
 20
259.6521676297734
 10
28.38453148770267
 20
259.381463262589
 10
28.84598128087482
 20
259.1396597175238
 10
28.84598128087482
 20
259.1396597175238
 10
29.46253215275409
 20
259.7562105894031
 10
28.99843311755434
 20
260.0247473949286
 10
28.58105707811419
 20
260.3024361274586
 10
28.21040403443364
 20
260.5892767869931
 10
27.88647398651269
 20
260.885269373532
 10
27.88647398651269
 20
260.885269373532
 10
27.48282583757922
 20
261.3621329385011
 10
27.20441458449624
 20
261.8601904396911
 10
27.20441458449624
 20
261.8601904396911
 10
27.11458119574195
 20
262.1152401948943
 10
27.0570203916876
 20
262.3755884341527
 10
27.03173217233317
 20
262.6412351574663
 10
27.03871653767868
 20
262.9121803648351
 10
27.03871653767868
 20
262.9121803648351
 10
27.14372285804562
 20
263.4622593458399
 10
27.37396607426304
 20
264.0104116053701
 10
27.37396607426304
 20
264.0104116053701
 10
27.73329962928018
 20
264.554710421951
 10
28.2178700801478
 20
265.1009359600066
 10
28.2178700801478
 20
265.1009359600066
 10
28.74964520714368
 20
265.5691292783399
 10
29.28912722003805
 20
265.9178658652466
 10
29.28912722003805
 20
265.9178658652466
 10
29.84113292251746
 20
266.1423289170402
 10
30.40277223236999
 20
266.2454085159325
 10
30.40277223236999
 20
266.2454085159325
 10
30.68070180508433
 20
266.2526337214623
 10
30.95188785263748
 20
266.2280680226609
 10
31.21633037502945
 20
266.1717114195282
 10
31.47402937226024
 20
266.0835639120642
 10
31.47402937226024
 20
266.0835639120642
 10
31.72667072562015
 20
265.9657930619279
 10
31.97208687345022
 20
265.8167129878289
 10
32.21027781575046
 20
265.6363236897674
 10
32.44124355252086
 20
265.4246251677432
 10
32.44124355252086
 20
265.4246251677432
  0
LWPOLYLINE
  5
AC
330
1F
100
AcDbEntity
  8
ANNOTATION_TEXT
  6
CONTINUOUS
100
AcDbPolyline
 90
       54
 70
     1
 43
0.0
 10
35.62804087154688
 20
256.3035257068791
 10
36.07215017144742
 20
256.8150702583914
 10
36.39487601844673
 20
257.3401018602261
 10
36.39487601844673
 20
257.3401018602261
 10
36.60488865918061
 20
257.8776571516458
 10
36.69544456848788
 20
258.4267727719134
 10
36.69544456848788
 20
258.4267727719134
 10
36.66654374636854
 20
258.9681815062823
 10
36.51818619282258
 20
259.4826161400066
 10
36.51818619282258
 20
259.4826161400066
 10
36.25326199006196
 20
259.9729667552981
 10
35.8669543344001
 20
260.4344165484703
 10
35.8669543344001
 20
260.4344165484703
 10
35.39009076943097
 20
260.8380646974037
 10
34.89203326824099
 20
261.1164759504867
 10
34.89203326824099
 20
261.1164759504867
 10
34.37663527377941
 20
261.2735037506685
 10
33.84004334309697
 20
261.3052946549997
 10
33.84004334309697
 20
261.3052946549997
 10
33.29670788725335
 20
261.2147387456924
 10
32.76107931730823
 20
261.0047261049586
 10
32.76107931730823
 20
261.0047261049586
 10
32.23604771547353
 20
260.6704399291115
 10
31.71679627806271
 20
260.2147703003633
 10
31.71679627806271
 20
260.2147703003633
 10
31.41044756359769
 20
259.8785574030416
 10
31.15419360747286
 20
259.5327108983468
 10
30.94803440968823
 20
259.1772307862789
 10
30.79196997024379
 20
258.8121170668379
 10
30.79196997024379
 20
258.8121170668379
 10
30.68792701061416
 20
258.444113265185
 10
30.63783225227397
 20
258.0799629064813
 10
30.63783225227397
 20
258.0799629064813
 10
30.64264905596053
 20
257.7187026299895
 10
30.70334078241114
 20
257.3593690749723
 10
30.70334078241114
 20
257.3593690749723
 10
30.81412726720195
 20
257.0135225702776
 10
30.97693523180757
 20
256.6850165588544
 10
30.97693523180757
 20
256.6850165588544
 10
31.1908013154907
 20
256.3728876799655
 10
31.45476215751401
 20
256.0761725728736
 10
31.45476215751401
 20
256.0761725728736
 10
31.92777227953389
 20
255.6744511454148
 10
32.42197633777463
 20
255.3941131708572
 10
32.42197633777463
 20
255.3941131708572
 10
32.94219113592277
 20
255.2399754528873
 10
33.48552659176639
 20
255.2091479092934
 10
33.48552659176639
 20
255.2091479092934
 10
34.03271549055924
 20
255.297777097126
 10
34.57219750345362
 20
255.5097164593345
 10
34.57219750345362
 20
255.5097164593345
 10
35.10397263044949
 20
255.8449659959189
 10
35.62804087154688
 20
256.3035257068791
 10
35.62804087154688
 20
256.3035257068791
  0
LWPOLYLINE
  5
AD
330
1F
100
AcDbEntity
  8
ANNOTATION_TEXT
  6
CONTINUOUS
100
AcDbPolyline
 90
       49
 70
     1
 43
0.0
 10
32.43353666662237
 20
259.4980299118036
 10
32.82755120818272
 20
259.8554367453461
 10
33.20807869942071
 20
260.1261411125306
 10
33.20807869942071
 20
260.1261411125306
 10
33.5799359440229
 20
260.3053262096705
 10
33.94023285977735
 20
260.3958821189778
 10
33.94023285977735
 20
260.3958821189778
 10
34.28896944668407
 20
260.3978088404524
 10
34.62614570474305
 20
260.3111063740944
 10
34.62614570474305
 20
260.3111063740944
 10
34.95176163395429
 20
260.1357747199037
 10
35.2658172343178
 20
259.8718138778804
 10
35.2658172343178
 20
259.8718138778804
 10
35.52592463339187
 20
259.5596849989915
 10
35.6974028446333
 20
259.2321423483057
 10
35.6974028446333
 20
259.2321423483057
 10
35.78795875394056
 20
258.8911126472975
 10
35.78988547541519
 20
258.5385226174415
 10
35.78988547541519
 20
258.5385226174415
 10
35.70318300905716
 20
258.1743722587378
 10
35.5278513548665
 20
257.7986615711864
 10
35.5278513548665
 20
257.7986615711864
 10
35.26389051284318
 20
257.4133172762618
 10
34.91130048298722
 20
257.0202660954387
 10
34.91130048298722
 20
257.0202660954387
 10
34.51439585921493
 20
256.6638226226335
 10
34.12519812134114
 20
256.396008337661
 10
34.12519812134114
 20
256.396008337661
 10
33.75045079452701
 20
256.2158598797837
 10
33.38148363213676
 20
256.1224138882645
 10
33.38148363213676
 20
256.1224138882645
 10
33.02311343785693
 20
256.1166337238407
 10
32.68015701537408
 20
256.1994827472495
 10
32.68015701537408
 20
256.1994827472495
 10
32.35646780763746
 20
256.3728876799655
 10
32.04819237169782
 20
256.631068357565
 10
32.04819237169782
 20
256.631068357565
 10
31.7842315296745
 20
256.9451239579284
 10
31.60889987548383
 20
257.2707398871397
 10
31.60889987548383
 20
257.2707398871397
 10
31.52605085207505
 20
257.6136963096226
 10
31.53183101649892
 20
257.9720665039024
 10
31.53183101649892
 20
257.9720665039024
 10
31.62527700801812
 20
258.3410336662926
 10
31.80542546589535
 20
258.7157809931068
 10
31.80542546589535
 20
258.7157809931068
 10
32.07612983307985
 20
259.1020886487686
 10
32.43353666662237
 20
259.4980299118036
 10
32.43353666662237
 20
259.4980299118036
  0
LWPOLYLINE
  5
AE
330
1F
100
AcDbEntity
  8
ANNOTATION_TEXT
  6
CONTINUOUS
100
AcDbPolyline
 90
        5
 70
     1
 43
0.0
 10
35.29664477791177
 20
252.3884276704457
 10
41.29260200693776
 20
258.3843848994716
 10
40.59898227607356
 20
259.0780046303358
 10
34.60302504704758
 20
253.0820474013099
 10
35.29664477791177
 20
252.3884276704457
  0
LWPOLYLINE
  5
AF
330
1F
100
AcDbEntity
  8
ANNOTATION_TEXT
  6
CONTINUOUS
100
AcDbPolyline
 90
       64
 70
     1
 43
0.0
 10
38.36013192256193
 20
249.1708028078257
 10
38.76763351444464
 20
248.7941287595369
 10
39.15008772715726
 20
248.5041571776062
 10
39.15008772715726
 20
248.5041571776062
 10
39.55277251535341
 20
248.2690971577022
 10
40.02096583368674
 20
248.0571577954937
 10
40.02096583368674
 20
248.0571577954937
 10
40.62980981966753
 20
248.6660017814745
 10
40.1018881356209
 20
248.9029885228531
 10
39.68186285415314
 20
249.143828707181
 10
39.68186285415314
 20
249.143828707181
 10
39.32541938134793
 20
249.4135697136282
 10
38.98053623739045
 20
249.7295520354663
 10
38.98053623739045
 20
249.7295520354663
 10
38.70212498430747
 20
250.0542046039402
 10
38.50656275463326
 20
250.3884907797872
 10
38.50656275463326
 20
250.3884907797872
 10
38.39770299131708
 20
250.7304838415328
 10
38.37169225140967
 20
251.0859639536007
 10
38.37169225140967
 20
251.0859639536007
 10
38.42564045269911
 20
251.4462608693551
 10
38.56436439887194
 20
251.8104112280589
 10
38.56436439887194
 20
251.8104112280589
 10
38.78882745066549
 20
252.1774516689745
 10
39.09999296881707
 20
252.5464188313647
 10
39.09999296881707
 20
252.5464188313647
 10
41.99778206664968
 20
249.6486297335321
 10
42.41780734811744
 20
250.0686550149999
 10
42.80411500377929
 20
250.514691036375
 10
43.08445297833691
 20
250.9742141080726
 10
43.08445297833691
 20
250.9742141080726
 10
43.26074799326489
 20
251.4472242300924
 10
43.33492677003786
 20
251.9337214024347
 10
43.33492677003786
 20
251.9337214024347
 10
43.30217250496928
 20
252.417328492565
 10
43.16537528027106
 20
252.8739614820506
 10
43.16537528027106
 20
252.8739614820506
 10
42.92453509594321
 20
253.31132725679
 10
42.57965195198575
 20
253.7217189308846
 10
42.57965195198575
 20
253.7217189308846
 10
42.13265256987327
 20
254.0916494540122
 10
41.65482564416683
 20
254.3382698027639
 10
41.65482564416683
 20
254.3382698027639
 10
41.14713453560373
 20
254.4702502237755
 10
40.6105426049213
 20
254.480847191886
 10
40.6105426049213
 20
254.480847191886
 10
40.06142698465382
 20
254.3768042322563
 10
39.52387169323407
 20
254.1571579841494
 10
39.52387169323407
 20
254.1571579841494
 10
39.000766812874
 20
253.8190183653531
 10
38.48729553988704
 20
253.367202179554
 10
38.48729553988704
 20
253.367202179554
 10
38.04318623998649
 20
252.8556576280417
 10
37.72046039298719
 20
252.330626026207
 10
37.72046039298719
 20
252.330626026207
 10
37.51911799888911
 20
251.7921073740499
 10
37.43915905769226
 20
251.2401016715705
 10
37.43915905769226
 20
251.2401016715705
 10
37.48251029087128
 20
250.6919494120403
 10
37.65109841990076
 20
250.164991088731
 10
37.65109841990076
 20
250.164991088731
 10
37.94396008404342
 20
249.6582633409053
 10
38.36013192256193
 20
249.1708028078257
 10
38.36013192256193
 20
249.1708028078257
  0
LWPOLYLINE
  5
B0
330
1F
100
AcDbEntity
  8
ANNOTATION_TEXT
  6
CONTINUOUS
100
AcDbPolyline
 90
       26
 70
     1
 43
0.0
 10
42.00548895254817
 20
253.162969703244
 10
42.21453823254473
 20
252.915385993755
 10
42.35615226092951
 20
252.6581686768928
 10
42.35615226092951
 20
252.6581686768928
 10
42.43514784138904
 20
252.386500948971
 10
42.4486348917114
 20
252.1032728922015
 10
42.4486348917114
 20
252.1032728922015
 10
42.39179660821003
 20
251.8152280317454
 10
42.26752307309686
 20
251.5214030068654
 10
42.26752307309686
 20
251.5214030068654
 10
42.07870436858383
 20
251.2266146212482
 10
41.82052369098439
 20
250.9279727926816
 10
41.82052369098439
 20
250.9279727926816
 10
39.66644908235615
 20
253.0820474013099
 10
39.97665123977042
 20
253.3094005353153
 10
40.28299995423544
 20
253.4750985821329
 10
40.28299995423544
 20
253.4750985821329
 10
40.59127539017507
 20
253.5829949847118
 10
40.89955082611471
 20
253.6292363001027
 10
40.89955082611471
 20
253.6292363001027
 10
41.19433921173199
 20
253.6118958068311
 10
41.47756726850154
 20
253.5290467834223
 10
41.47756726850154
 20
253.5290467834223
 10
41.74827163568603
 20
253.3797258691391
 10
42.00548895254817
 20
253.162969703244
 10
42.00548895254817
 20
253.162969703244
  0
LWPOLYLINE
  5
B1
330
1F
100
AcDbEntity
  8
ANNOTATION_TEXT
  6
CONTINUOUS
100
AcDbPolyline
 90
       31
 70
     1
 43
0.0
 10
47.700877631533
 20
239.9841948168244
 10
53.33461122332991
 20
245.6179284086213
 10
52.67181903605969
 20
246.2807205958916
 10
49.49272860293215
 20
243.101630162764
 10
49.34726113159814
 20
242.9532726092181
 10
49.16518595224629
 20
242.7625271832304
 10
48.94650306487661
 20
242.5293938848011
 10
48.69121246948909
 20
242.25387271393
 10
48.69121246948909
 20
242.25387271393
 10
48.4482047235023
 20
241.9896710317224
 10
48.26251694138553
 20
241.786642756334
 10
48.13414912313879
 20
241.6447878877649
 10
48.06310126876208
 20
241.5641064260151
 10
48.06310126876208
 20
241.5641064260151
 10
48.03227372516811
 20
241.594933969609
 10
48.57946262396098
 20
244.1073787725171
 10
49.5890646766633
 20
248.8162860564951
 10
49.68925419334368
 20
249.2632854386076
 10
48.86847084515439
 20
250.0840687867968
 10
43.23473725335748
 20
244.450335195
 10
43.88982255472921
 20
243.7952498936282
 10
47.03808544426278
 20
246.9435127831618
 10
47.30493636849803
 20
247.2161438718209
 10
47.58912778600489
 20
247.5176757825994
 10
47.89065969678335
 20
247.8481085154972
 10
48.20953210083341
 20
248.2074420705143
 10
48.20953210083341
 20
248.2074420705143
 10
48.50239376497606
 20
248.5388381641494
 10
48.53322130857003
 20
248.5080106205555
 10
46.87238739744522
 20
240.8126850509122
 10
47.700877631533
 20
239.9841948168244
  0
LWPOLYLINE
  5
B2
330
1F
100
AcDbEntity
  8
ANNOTATION_TEXT
  6
CONTINUOUS
100
AcDbPolyline
 90
       64
 70
     1
 43
0.0
 10
50.85684740696506
 20
236.6740873234226
 10
51.26434899884777
 20
236.2974132751338
 10
51.64680321156038
 20
236.0074416932031
 10
51.64680321156038
 20
236.0074416932031
 10
52.04948799975654
 20
235.7723816732991
 10
52.51768131808986
 20
235.5604423110906
 10
52.51768131808986
 20
235.5604423110906
 10
53.12652530407065
 20
236.1692862970714
 10
52.59860362002402
 20
236.40627303845
 10
52.17857833855626
 20
236.6471132227778
 10
52.17857833855626
 20
236.6471132227778
 10
51.82213486575105
 20
236.916854229225
 10
51.47725172179358
 20
237.2328365510631
 10
51.47725172179358
 20
237.2328365510631
 10
51.19884046871059
 20
237.5574891195371
 10
51.00327823903639
 20
237.8917752953841
 10
51.00327823903639
 20
237.8917752953841
 10
50.8944184757202
 20
238.2337683571297
 10
50.8684077358128
 20
238.5892484691976
 10
50.8684077358128
 20
238.5892484691976
 10
50.92235593710223
 20
238.949545384952
 10
51.06107988327507
 20
239.3136957436557
 10
51.06107988327507
 20
239.3136957436557
 10
51.28554293506862
 20
239.6807361845713
 10
51.5967084532202
 20
240.0497033469616
 10
51.5967084532202
 20
240.0497033469616
 10
54.4944975510528
 20
237.151914249129
 10
54.91452283252056
 20
237.5719395305968
 10
55.30083048818242
 20
238.0179755519719
 10
55.58116846274003
 20
238.4774986236694
 10
55.58116846274003
 20
238.4774986236694
 10
55.75746347766801
 20
238.9505087456893
 10
55.83164225444099
 20
239.4370059180316
 10
55.83164225444099
 20
239.4370059180316
 10
55.7988879893724
 20
239.9206130081619
 10
55.66209076467419
 20
240.3772459976475
 10
55.66209076467419
 20
240.3772459976475
 10
55.42125058034634
 20
240.8146117723868
 10
55.07636743638887
 20
241.2250034464815
 10
55.07636743638887
 20
241.2250034464815
 10
54.6293680542764
 20
241.5949339696091
 10
54.15154112856995
 20
241.8415543183607
 10
54.15154112856995
 20
241.8415543183607
 10
53.64385002000686
 20
241.9735347393724
 10
53.10725808932443
 20
241.9841317074828
 10
53.10725808932443
 20
241.9841317074828
 10
52.55814246905695
 20
241.8800887478532
 10
52.0205871776372
 20
241.6604424997462
 10
52.0205871776372
 20
241.6604424997462
 10
51.49748229727712
 20
241.3223028809499
 10
50.98401102429016
 20
240.8704866951509
 10
50.98401102429016
 20
240.8704866951509
 10
50.53990172438962
 20
240.3589421436386
 10
50.21717587739031
 20
239.8339105418039
 10
50.21717587739031
 20
239.8339105418039
 10
50.01583348329223
 20
239.2953918896468
 10
49.93587454209538
 20
238.7433861871674
 10
49.93587454209538
 20
238.7433861871674
 10
49.9792257752744
 20
238.1952339276372
 10
50.14781390430389
 20
237.6682756043279
 10
50.14781390430389
 20
237.6682756043279
 10
50.44067556844654
 20
237.1615478565021
 10
50.85684740696506
 20
236.6740873234226
 10
50.85684740696506
 20
236.6740873234226
  0
LWPOLYLINE
  5
B3
330
1F
100
AcDbEntity
  8
ANNOTATION_TEXT
  6
CONTINUOUS
100
AcDbPolyline
 90
       26
 70
     1
 43
0.0
 10
54.5022044369513
 20
240.6662542188409
 10
54.71125371694786
 20
240.4186705093519
 10
54.85286774533263
 20
240.1614531924897
 10
54.85286774533263
 20
240.1614531924897
 10
54.93186332579216
 20
239.8897854645679
 10
54.94535037611453
 20
239.6065574077984
 10
54.94535037611453
 20
239.6065574077984
 10
54.88851209261315
 20
239.3185125473423
 10
54.76423855749999
 20
239.0246875224623
 10
54.76423855749999
 20
239.0246875224623
 10
54.57541985298695
 20
238.729899136845
 10
54.31723917538751
 20
238.4312573082785
 10
54.31723917538751
 20
238.4312573082785
 10
52.16316456675928
 20
240.5853319169067
 10
52.47336672417354
 20
240.8126850509122
 10
52.77971543863856
 20
240.9783830977298
 10
52.77971543863856
 20
240.9783830977298
 10
53.0879908745782
 20
241.0862795003086
 10
53.39626631051784
 20
241.1325208156996
 10
53.39626631051784
 20
241.1325208156996
 10
53.69105469613512
 20
241.115180322428
 10
53.97428275290466
 20
241.0323312990192
 10
53.97428275290466
 20
241.0323312990192
 10
54.24498712008916
 20
240.8830103847359
 10
54.5022044369513
 20
240.6662542188409
 10
54.5022044369513
 20
240.6662542188409
  0
LWPOLYLINE
  5
B4
330
1F
100
AcDbEntity
  8
ANNOTATION_TEXT
  6
CONTINUOUS
100
AcDbPolyline
 90
       77
 70
     1
 43
0.0
 10
56.19771933461931
 20
231.4873531137381
 10
56.70252036097047
 20
230.982552087387
 10
59.5848956870061
 20
233.8649274134226
 10
59.90569481253078
 20
234.2338945758129
 10
60.12823114284971
 20
234.6009350167285
 10
60.12823114284971
 20
234.6009350167285
 10
60.25732148164943
 20
234.9612319324829
 10
60.29007574671802
 20
235.3176754052882
 10
60.29007574671802
 20
235.3176754052882
 10
60.22553057731816
 20
235.6789356817799
 10
60.07042949861103
 20
236.0459761226955
 10
60.07042949861103
 20
236.0459761226955
 10
59.82477251059663
 20
236.4187967280351
 10
59.48855961327496
 20
236.7973974977984
 10
59.48855961327496
 20
236.7973974977984
 10
59.09261835023999
 20
237.1451707239678
 10
58.6446556073902
 20
237.4486293562209
 10
58.6446556073902
 20
237.4486293562209
 10
58.16682868168376
 20
237.6971764264472
 10
57.68129487007883
 20
237.8802149665364
 10
57.68129487007883
 20
237.8802149665364
 10
57.37301943413919
 20
237.1480608061798
 10
58.15526835283602
 20
236.8128112695954
 10
58.15526835283602
 20
236.8128112695954
 10
58.53964928702326
 20
236.5787146104287
 10
58.89127595614191
 20
236.2771826996503
 10
58.89127595614191
 20
236.2771826996503
 10
59.08876490729074
 20
236.0507929263821
 10
59.22652549272627
 20
235.8263298745886
 10
59.22652549272627
 20
235.8263298745886
 10
59.30744779466043
 20
235.6009034620577
 10
59.32671500940666
 20
235.3793304924761
 10
59.32671500940666
 20
235.3793304924761
 10
59.28625385843957
 20
235.1577575228945
 10
59.18799106323381
 20
234.9323311103636
 10
59.18799106323381
 20
234.9323311103636
 10
59.03578006673862
 20
234.6991978119343
 10
58.82576742600474
 20
234.4622110705556
 10
58.82576742600474
 20
234.4622110705556
 10
58.57529363430378
 20
234.2117372788547
 10
57.8315791450994
 20
234.9015035667696
 10
57.32003459358706
 20
235.3436861451956
 10
56.83353742124482
 20
235.6837524854665
 10
56.83353742124482
 20
235.6837524854665
 10
56.37208762807267
 20
235.9217025875824
 10
55.93568521407062
 20
236.0575364515433
 10
55.93568521407062
 20
236.0575364515433
 10
55.52529353997598
 20
236.0922174380865
 10
55.14187596652605
 20
236.0267089079493
 10
55.14187596652605
 20
236.0267089079493
 10
54.78446913298353
 20
235.8542673359706
 10
54.4521096786111
 20
235.5835629687861
 10
54.4521096786111
 20
235.5835629687861
 10
54.19103891879972
 20
235.2781776150584
 10
54.00896373944787
 20
234.9631586539576
 10
54.00896373944787
 20
234.9631586539576
 10
53.90588414055556
 20
234.6385060854836
 10
53.88180012212277
 20
234.3042199096366
 10
53.88180012212277
 20
234.3042199096366
 10
53.93093151972565
 20
233.9660802908403
 10
54.05520505483882
 20
233.6375742794171
 10
54.05520505483882
 20
233.6375742794171
 10
54.25751080967421
 20
233.3138850716805
 10
54.53303198054526
 20
232.9979027498424
 10
54.53303198054526
 20
232.9979027498424
 10
54.77025956210819
 20
232.7780156615511
 10
55.00411538109052
 20
232.5961813223835
 10
55.23459943749226
 20
232.4523997323398
 10
55.46171173131342
 20
232.3466708914199
 10
55.46171173131342
 20
232.3466708914199
 10
55.70688703895917
 20
232.2758638772275
 10
55.98385325093619
 20
232.2368477673664
 10
56.29261036724448
 20
232.2296225618365
 10
56.63315838788405
 20
232.254188260638
 10
56.63315838788405
 20
232.254188260638
 10
56.66398593147802
 20
232.223360717044
 10
56.19771933461931
 20
231.4873531137381
  0
LWPOLYLINE
  5
B5
330
1F
100
AcDbEntity
  8
ANNOTATION_TEXT
  6
CONTINUOUS
100
AcDbPolyline
 90
       39
 70
     1
 43
0.0
 10
55.24977236910492
 20
233.3986608165639
 10
55.08600104376199
 20
233.5836260781277
 10
54.96461759086075
 20
233.7685913396915
 10
54.96461759086075
 20
233.7685913396915
 10
54.88947545335047
 20
233.9574100442045
 10
54.85672118828188
 20
234.1462287487175
 10
54.85672118828188
 20
234.1462287487175
 10
54.86731815639231
 20
234.3321573710186
 10
54.92222971841905
 20
234.5123058288958
 10
54.92222971841905
 20
234.5123058288958
 10
55.02145587436213
 20
234.6866741223492
 10
55.16499662422152
 20
234.8552622513787
 10
55.16499662422152
 20
234.8552622513787
 10
55.38945967601507
 20
235.0392641522052
 10
55.62355633518173
 20
235.1519773584706
 10
55.62355633518173
 20
235.1519773584706
 10
55.87403012688269
 20
235.1943652309123
 10
55.87403012688269
 20
235.1943652309123
 10
56.13991769038063
 20
235.1673911302676
 10
56.13991769038063
 20
235.1673911302676
 10
56.42314574715017
 20
235.0662382528499
 10
56.73334790456444
 20
234.8937966808711
 10
57.07052416262341
 20
234.6500664143314
 10
57.43467452132711
 20
234.3350474532305
 10
57.43467452132711
 20
234.3350474532305
 10
58.0859063797496
 20
233.7377637960975
 10
57.7044155277743
 20
233.3562729441222
 10
57.41059050289433
 20
233.1048357916839
 10
57.10713187064125
 20
232.9285407767559
 10
57.10713187064125
 20
232.9285407767559
 10
56.79500299175236
 20
232.8264245386009
 10
56.47516722696498
 20
232.7975237164816
 10
56.47516722696498
 20
232.7975237164816
 10
56.15533146217761
 20
232.8418383103979
 10
55.84320258328873
 20
232.9593683203499
 10
55.84320258328873
 20
232.9593683203499
 10
55.54263403324758
 20
233.1443335819137
 10
55.24977236910492
 20
233.3986608165639
 10
55.24977236910492
 20
233.3986608165639
  0
LWPOLYLINE
  5
B6
330
1F
100
AcDbEntity
  8
ANNOTATION_TEXT
  6
CONTINUOUS
100
AcDbPolyline
 90
        5
 70
     1
 43
0.0
 10
58.70631069457812
 20
228.9787617537793
 10
64.70226792360411
 20
234.9747189828053
 10
64.00864819273993
 20
235.6683387136695
 10
58.01269096371394
 20
229.6723814846435
 10
58.70631069457812
 20
228.9787617537793
  0
ENDSEC
  0
SECTION
  2
OBJECTS
  0
DICTIONARY
  5
C
330
0
100
AcDbDictionary
  3
ACAD_GROUP
350
D
  3
ACAD_LAYOUT
350
1A
  3
ACAD_MATERIAL
350
43
  3
ACAD_MLEADERSTYLE
350
6B
  3
ACAD_MLINESTYLE
350
17
  3
ACAD_PLOTSETTINGS
350
19
  3
ACAD_SCALELIST
350
47
  3
ACAD_VISUALSTYLE
350
2A
  3
ACDBHEADERROUNDTRIPXREC
350
FD
  3
ACDBVARIABLEDICTIONARY
350
6E
  3
ONSHAPE_DATA
350
B7
  0
DICTIONARY
  5
128
330
8
100
AcDbDictionary
280
     1
  3
ACAD_XREC_ROUNDTRIP
360
129
  0
DICTIONARY
  5
D
102
{ACAD_REACTORS
330
C
102
}
330
C
100
AcDbDictionary
  0
DICTIONARY
  5
1A
102
{ACAD_REACTORS
330
C
102
}
330
C
100
AcDbDictionary
  0
DICTIONARY
  5
43
102
{ACAD_REACTORS
330
C
102
}
330
C
100
AcDbDictionary
  3
BYBLOCK
350
45
  3
BYLAYER
350
44
  3
GLOBAL
350
46
  0
DICTIONARY
  5
6B
102
{ACAD_REACTORS
330
C
102
}
330
C
100
AcDbDictionary
  3
STANDARD
350
6C
  0
DICTIONARY
  5
17
102
{ACAD_REACTORS
330
C
102
}
330
C
100
AcDbDictionary
  3
STANDARD
350
18
  0
DICTIONARY
  5
19
102
{ACAD_REACTORS
330
C
102
}
330
C
100
AcDbDictionary
  0
DICTIONARY
  5
47
102
{ACAD_REACTORS
330
C
102
}
330
C
100
AcDbDictionary
  3
A0
350
48
  3
A1
350
49
  3
A2
350
4A
  3
A3
350
4B
  3
A4
350
4C
  3
A5
350
4D
  3
A6
350
4E
  3
A7
350
4F
  3
A8
350
50
  3
A9
350
51
  3
B0
350
52
  3
B1
350
53
  3
B2
350
54
  3
B3
350
55
  3
B4
350
56
  3
B5
350
57
  3
B6
350
58
  3
B7
350
59
  3
B8
350
5A
  3
B9
350
5B
  3
C0
350
5C
  3
C1
350
5D
  3
C2
350
5E
  3
C3
350
5F
  3
C4
350
60
  3
C5
350
61
  3
C6
350
62
  3
C7
350
63
  3
C8
350
64
  3
C9
350
65
  3
D0
350
66
  3
D1
350
67
  3
D2
350
68
  0
DICTIONARY
  5
2A
102
{ACAD_REACTORS
330
C
102
}
330
C
100
AcDbDictionary
  3
2DWIREFRAME
350
2F
  3
BASIC
350
32
  3
BRIGHTEN
350
36
  3
COLORCHANGE
350
3A
  3
CONCEPTUAL
350
34
  3
DIM
350
35
  3
EDGECOLOROFF
350
3D
  3
FACEPATTERN
350
39
  3
FLAT
350
2B
  3
FLATWITHEDGES
350
2C
  3
GOURAUD
350
2D
  3
GOURAUDWITHEDGES
350
2E
  3
HIDDEN
350
31
  3
JITTEROFF
350
3B
  3
LINEPATTERN
350
38
  3
OVERHANGOFF
350
3C
  3
REALISTIC
350
33
  3
SHADED
350
42
  3
SHADED_WITH_EDGES
350
41
  3
SHADES_OF_GRAY
350
3E
  3
SKETCHY
350
3F
  3
THICKEN
350
37
  3
WIREFRAME
350
30
  3
X-RAY
350
40
  0
DICTIONARY
  5
FD
102
{ACAD_REACTORS
330
C
102
}
330
C
100
AcDbDictionary
  3
CEPSNID
350
107
  3
CEPSNTYPE
350
106
  3
DIMSTYLEDATA
350
11D
  3
FINGERPRINTGUID
350
108
  3
HYPERLINKBASE
350
100
  3
INSUNITS
350
105
  3
LAYOUTDICT
350
102
  3
LWETCUNION
350
104
  3
PLOTSETDICT
350
103
  3
PSVPSCALE
350
10A
  3
PUCSBASE
350
10D
  3
PUCSORGBACK
350
113
  3
PUCSORGBOTTOM
350
10F
  3
PUCSORGFRONT
350
112
  3
PUCSORGLEFT
350
110
  3
PUCSORGRIGHT
350
111
  3
PUCSORGTOP
350
10E
  3
PUCSORTHOREF
350
10B
  3
PUCSORTHOVIEW
350
10C
  3
STYLESHEET
350
101
  3
TSTACKALIGN
350
FE
  3
TSTACKSIZE
350
FF
  3
UCSBASE
350
116
  3
UCSORGBACK
350
11C
  3
UCSORGBOTTOM
350
118
  3
UCSORGFRONT
350
11B
  3
UCSORGLEFT
350
119
  3
UCSORGRIGHT
350
11A
  3
UCSORGTOP
350
117
  3
UCSORTHOREF
350
114
  3
UCSORTHOVIEW
350
115
  3
VERSIONGUID
350
109
  0
DICTIONARY
  5
6E
102
{ACAD_REACTORS
330
C
102
}
330
C
100
AcDbDictionary
  3
CANNOSCALE
350
12A
  3
CENTEREXE
350
124
  3
CENTERLTYPEFILE
350
125
  3
CMLEADERSTYLE
350
11F
  3
CTABLESTYLE
350
11E
  3
DIMASSOC
350
126
  3
HIDETEXT
350
127
  3
MSLTSCALE
350
12B
  3
OLEFRAME
350
6F
  3
PSOLHEIGHT
350
121
  3
PSOLWIDTH
350
120
  0
DICTIONARY
  5
B7
102
{ACAD_REACTORS
330
C
102
}
330
C
100
AcDbDictionary
280
     1
  3
DIM_UNITS
360
B8
  3
ONSHAPE_ANG_TOL_PRECISION
360
BB
  3
ONSHAPE_VSHARP_EXTENSION
360
BA
  3
ONSHAPE_WELD_STANDARD
360
B9
  0
XRECORD
  5
129
102
{ACAD_REACTORS
330
128
102
}
330
128
100
AcDbXrecord
102
VTR_0.000_0.000_1.000_1.000_VISUALSTYLE
340
2F
102
VTR_0.000_0.000_1.000_1.000_GRIDDISPLAY
 70
     3
102
VTR_0.000_0.000_1.000_1.000_GRIDMAJOR
 70
     5
102
VTR_0.000_0.000_1.000_1.000_DEFAULTLIGHTING
280
     1
102
VTR_0.000_0.000_1.000_1.000_DEFAULTLIGHTINGTYPE
 70
     1
102
VTR_0.000_0.000_1.000_1.000_BRIGHTNESS
141
0.0
102
VTR_0.000_0.000_1.000_1.000_CONTRAST
142
0.0
  0
MATERIAL
  5
45
102
{ACAD_REACTORS
330
43
102
}
102
{ACAD_XDICTIONARY
360
12E
102
}
330
43
100
AcDbMaterial
  1
BYBLOCK
  0
MATERIAL
  5
44
102
{ACAD_REACTORS
330
43
102
}
102
{ACAD_XDICTIONARY
360
12C
102
}
330
43
100
AcDbMaterial
  1
BYLAYER
  0
MATERIAL
  5
46
102
{ACAD_REACTORS
330
43
102
}
102
{ACAD_XDICTIONARY
360
130
102
}
330
43
100
AcDbMaterial
  1
GLOBAL
  0
ACAD_PROXY_OBJECT
  5
6C
102
{ACAD_REACTORS
330
6B
102
}
330
6B
100
AcDbProxyObject
 90
      499
 91
      505
 93
      610
310
40901902A4063FBFFFFFE0000000000000020400000000000020404214DD185B99185C990000000000000104090140501A00000000000004100000000000000041025764000000000000039000
340
14
340
0
340
11
340
0
 94
        0
1001
ACAD_MLEADERVER
1070
     2
  0
MLINESTYLE
  5
18
102
{ACAD_REACTORS
330
17
102
}
330
17
100
AcDbMlineStyle
  2
Standard
 70
     0
  3

 62
   256
 51
90.0
 52
90.0
 71
     2
 49
0.5
 62
   256
  6
BYLAYER
 49
-0.5
 62
   256
  6
BYLAYER
  0
ACAD_PROXY_OBJECT
  5
48
102
{ACAD_REACTORS
330
47
102
}
330
47
100
AcDbProxyObject
 90
      499
 91
      503
 93
       41
310
903313A31580
  0
ACAD_PROXY_OBJECT
  5
49
102
{ACAD_REACTORS
330
47
102
}
330
47
100
AcDbProxyObject
 90
      499
 91
      503
 93
      105
310
903313A324000000000000004000
  0
ACAD_PROXY_OBJECT
  5
4A
102
{ACAD_REACTORS
330
47
102
}
330
47
100
AcDbProxyObject
 90
      499
 91
      503
 93
      105
310
903313A344000000000000104000
  0
ACAD_PROXY_OBJECT
  5
4B
102
{ACAD_REACTORS
330
47
102
}
330
47
100
AcDbProxyObject
 90
      499
 91
      503
 93
      105
310
903313A354000000000000144000
  0
ACAD_PROXY_OBJECT
  5
4C
102
{ACAD_REACTORS
330
47
102
}
330
47
100
AcDbProxyObject
 90
      499
 91
      503
 93
      105
310
903313A384000000000000204000
  0
ACAD_PROXY_OBJECT
  5
4D
102
{ACAD_REACTORS
330
47
102
}
330
47
100
AcDbProxyObject
 90
      499
 91
      503
 93
      113
310
904313A31304000000000000244000
  0
ACAD_PROXY_OBJECT
  5
4E
102
{ACAD_REACTORS
330
47
102
}
330
47
100
AcDbProxyObject
 90
      499
 91
      503
 93
      113
310
904313A31364000000000000304000
  0
ACAD_PROXY_OBJECT
  5
4F
102
{ACAD_REACTORS
330
47
102
}
330
47
100
AcDbProxyObject
 90
      499
 91
      503
 93
      113
310
904313A32304000000000000344000
  0
ACAD_PROXY_OBJECT
  5
50
102
{ACAD_REACTORS
330
47
102
}
330
47
100
AcDbProxyObject
 90
      499
 91
      503
 93
      113
310
904313A333040000000000003E4000
  0
ACAD_PROXY_OBJECT
  5
51
102
{ACAD_REACTORS
330
47
102
}
330
47
100
AcDbProxyObject
 90
      499
 91
      503
 93
      113
310
904313A34304000000000000444000
  0
ACAD_PROXY_OBJECT
  5
52
102
{ACAD_REACTORS
330
47
102
}
330
47
100
AcDbProxyObject
 90
      499
 91
      503
 93
      113
310
904313A35304000000000000494000
  0
ACAD_PROXY_OBJECT
  5
53
102
{ACAD_REACTORS
330
47
102
}
330
47
100
AcDbProxyObject
 90
      499
 91
      503
 93
      121
310
905313A3130304000000000000594000
  0
ACAD_PROXY_OBJECT
  5
54
102
{ACAD_REACTORS
330
47
102
}
330
47
100
AcDbProxyObject
 90
      499
 91
      503
 93
      105
310
903323A310000000000000010100
  0
ACAD_PROXY_OBJECT
  5
55
102
{ACAD_REACTORS
330
47
102
}
330
47
100
AcDbProxyObject
 90
      499
 91
      503
 93
      105
310
903343A310000000000000410100
  0
ACAD_PROXY_OBJECT
  5
56
102
{ACAD_REACTORS
330
47
102
}
330
47
100
AcDbProxyObject
 90
      499
 91
      503
 93
      105
310
903383A310000000000000810100
  0
ACAD_PROXY_OBJECT
  5
57
102
{ACAD_REACTORS
330
47
102
}
330
47
100
AcDbProxyObject
 90
      499
 91
      503
 93
      113
310
90431303A310000000000000910100
  0
ACAD_PROXY_OBJECT
  5
58
102
{ACAD_REACTORS
330
47
102
}
330
47
100
AcDbProxyObject
 90
      499
 91
      503
 93
      121
310
9053130303A310000000000001650100
  0
ACAD_PROXY_OBJECT
  5
59
102
{ACAD_REACTORS
330
47
102
}
330
47
100
AcDbProxyObject
 90
      499
 91
      503
 93
      257
310
90E312F31323822203D2031272D3022000000000000200FC000000000000284000
  0
ACAD_PROXY_OBJECT
  5
5A
102
{ACAD_REACTORS
330
47
102
}
330
47
100
AcDbProxyObject
 90
      499
 91
      503
 93
      249
310
90D312F363422203D2031272D3022000000000000240FC000000000000284000
  0
ACAD_PROXY_OBJECT
  5
5B
102
{ACAD_REACTORS
330
47
102
}
330
47
100
AcDbProxyObject
 90
      499
 91
      503
 93
      249
310
90D312F333222203D2031272D3022000000000000280FC000000000000284000
  0
ACAD_PROXY_OBJECT
  5
5C
102
{ACAD_REACTORS
330
47
102
}
330
47
100
AcDbProxyObject
 90
      499
 91
      503
 93
      249
310
90D312F313622203D2031272D30220000000000002C0FC000000000000284000
  0
ACAD_PROXY_OBJECT
  5
5D
102
{ACAD_REACTORS
330
47
102
}
330
47
100
AcDbProxyObject
 90
      499
 91
      503
 93
      249
310
90D332F333222203D2031272D30220000000000002E0FC000000000000284000
  0
ACAD_PROXY_OBJECT
  5
5E
102
{ACAD_REACTORS
330
47
102
}
330
47
100
AcDbProxyObject
 90
      499
 91
      503
 93
      241
310
90C312F3822203D2031272D3022000000000000300FC000000000000284000
  0
ACAD_PROXY_OBJECT
  5
5F
102
{ACAD_REACTORS
330
47
102
}
330
47
100
AcDbProxyObject
 90
      499
 91
      503
 93
      249
310
90D332F313622203D2031272D3022000000000000320FC000000000000284000
  0
ACAD_PROXY_OBJECT
  5
60
102
{ACAD_REACTORS
330
47
102
}
330
47
100
AcDbProxyObject
 90
      499
 91
      503
 93
      241
310
90C312F3422203D2031272D3022000000000000340FC000000000000284000
  0
ACAD_PROXY_OBJECT
  5
61
102
{ACAD_REACTORS
330
47
102
}
330
47
100
AcDbProxyObject
 90
      499
 91
      503
 93
      241
310
90C332F3822203D2031272D3022000000000000360FC000000000000284000
  0
ACAD_PROXY_OBJECT
  5
62
102
{ACAD_REACTORS
330
47
102
}
330
47
100
AcDbProxyObject
 90
      499
 91
      503
 93
      241
310
90C312F3222203D2031272D3022000000000000380FC000000000000284000
  0
ACAD_PROXY_OBJECT
  5
63
102
{ACAD_REACTORS
330
47
102
}
330
47
100
AcDbProxyObject
 90
      499
 91
      503
 93
      241
310
90C332F3422203D2031272D30220000000000003A0FC000000000000284000
  0
ACAD_PROXY_OBJECT
  5
64
102
{ACAD_REACTORS
330
47
102
}
330
47
100
AcDbProxyObject
 90
      499
 91
      503
 93
      161
310
90A3122203D2031272D30224000000000000284000
  0
ACAD_PROXY_OBJECT
  5
65
102
{ACAD_REACTORS
330
47
102
}
330
47
100
AcDbProxyObject
 90
      499
 91
      503
 93
      257
310
90E312D312F3222203D2031272D30220000000000003E0FC000000000000284000
  0
ACAD_PROXY_OBJECT
  5
66
102
{ACAD_REACTORS
330
47
102
}
330
47
100
AcDbProxyObject
 90
      499
 91
      503
 93
      225
310
90A3322203D2031272D302200000000000002100000000000000284000
  0
ACAD_PROXY_OBJECT
  5
67
102
{ACAD_REACTORS
330
47
102
}
330
47
100
AcDbProxyObject
 90
      499
 91
      503
 93
      225
310
90A3622203D2031272D302200000000000006100000000000000284000
  0
ACAD_PROXY_OBJECT
  5
68
102
{ACAD_REACTORS
330
47
102
}
330
47
100
AcDbProxyObject
 90
      499
 91
      503
 93
      249
310
90D31272D3022203D2031272D30220000000000000A100000000000000284000
  0
ACAD_PROXY_OBJECT
  5
2F
102
{ACAD_REACTORS
330
2A
102
}
330
2A
100
AcDbProxyObject
 90
      499
 91
      501
 93
      436
310
42CC9915DA5C99599C985B595049028333333333333E33F0000000000000F90107901411070040501600405405064090741402480A0340
1001
ACAD
1000
AcDbSavedByObjectVersion
1070
     0
  0
ACAD_PROXY_OBJECT
  5
32
102
{ACAD_REACTORS
330
2A
102
}
330
2A
100
AcDbProxyObject
 90
      499
 91
      501
 93
      388
310
4150985CDA58D07406404333333333333E33F0000000000000F90107A41107004050150841D405064090741402480A0350
1001
ACAD
1000
AcDbSavedByObjectVersion
1070
     0
  0
ACAD_PROXY_OBJECT
  5
36
102
{ACAD_REACTORS
330
2A
102
}
330
2A
100
AcDbProxyObject
 90
      499
 91
      501
 93
      428
310
42109C9A59DA1D195B90C409028333333333333E33F0000000000000F9010790141107004050150841D405064090741402480A029950
1001
ACAD
1000
AcDbSavedByObjectVersion
1070
     0
  0
ACAD_PROXY_OBJECT
  5
3A
102
{ACAD_REACTORS
330
2A
102
}
330
2A
100
AcDbProxyObject
 90
      499
 91
      501
 93
      452
310
42D0DBDB1BDC90DA185B99D95104090240C333333333333E33F0000000000000F90108901411070040501508421405064090741402480A0350
1001
ACAD
1000
AcDbSavedByObjectVersion
1070
     0
  0
ACAD_PROXY_OBJECT
  5
34
102
{ACAD_REACTORS
330
2A
102
}
330
2A
100
AcDbProxyObject
 90
      499
 91
      501
 93
      500
310
4290DBDB98D95C1D1D585B10940D028333333333333E33F0000000000000F90107902409070040501000000000018199010841D405064090740C02480A0340
1001
ACAD
1000
AcDbSavedByObjectVersion
1070
     0
  0
ACAD_PROXY_OBJECT
  5
35
102
{ACAD_REACTORS
330
2A
102
}
330
2A
100
AcDbProxyObject
 90
      499
 91
      501
 93
      412
310
40D11A5B50B409028333333333333E33F0000000000000F9010790141107004050150841D405064090741402480A02677FFFFFD0
1001
ACAD
1000
AcDbSavedByObjectVersion
1070
     0
  0
ACAD_PROXY_OBJECT
  5
3D
102
{ACAD_REACTORS
330
2A
102
}
330
2A
100
AcDbProxyObject
 90
      499
 91
      501
 93
      452
310
43115919D950DBDB1BDC93D999916409028333333333333E33F0000000000000F9010790141107004050150841D405064090741402480A0350
1001
ACAD
1000
AcDbSavedByObjectVersion
1070
     0
  0
ACAD_PROXY_OBJECT
  5
39
102
{ACAD_REACTORS
330
2A
102
}
330
2A
100
AcDbProxyObject
 90
      499
 91
      501
 93
      444
310
42D19858D95C185D1D195C9B90F409028333333333333E33F0000000000000F9010790141107004050150841D405064090741402480A0350
1001
ACAD
1000
AcDbSavedByObjectVersion
1070
     0
  0
ACAD_PROXY_OBJECT
  5
2B
102
{ACAD_REACTORS
330
2A
102
}
330
2A
100
AcDbProxyObject
 90
      499
 91
      501
 93
      380
310
41119B185D240901404333333333333E33F0000000000000F9010740A907004050150841D405064090741402480A1B50
1001
ACAD
1000
AcDbSavedByObjectVersion
1070
     0
  0
ACAD_PROXY_OBJECT
  5
2C
102
{ACAD_REACTORS
330
2A
102
}
330
2A
100
AcDbProxyObject
 90
      499
 91
      501
 93
      468
310
43519B185D15DA5D1A115919D95CD0140901404333333333333E33F0000000000000F90107409019070040501600405405064090741402480A1B50
1001
ACAD
1000
AcDbSavedByObjectVersion
1070
     0
  0
ACAD_PROXY_OBJECT
  5
2D
102
{ACAD_REACTORS
330
2A
102
}
330
2A
100
AcDbProxyObject
 90
      499
 91
      501
 93
      404
310
41D1DBDD5C985D5910240902404333333333333E33F0000000000000F9010740A9070040501641D405064090741402480A1B50
1001
ACAD
1000
AcDbSavedByObjectVersion
1070
     0
  0
ACAD_PROXY_OBJECT
  5
2E
102
{ACAD_REACTORS
330
2A
102
}
330
2A
100
AcDbProxyObject
 90
      499
 91
      501
 93
      492
310
4411DBDD5C985D5915DA5D1A115919D95CD0340902404333333333333E33F0000000000000F90107409019070040501600405405064090741402480A1B50
1001
ACAD
1000
AcDbSavedByObjectVersion
1070
     0
  0
ACAD_PROXY_OBJECT
  5
31
102
{ACAD_REACTORS
330
2A
102
}
330
2A
100
AcDbProxyObject
 90
      499
 91
      501
 93
      476
310
41921A5919195B90640502408333333333333E33F0000000000000F901079024090700405020000000000001110200405405064090740C02480A0340
1001
ACAD
1000
AcDbSavedByObjectVersion
1070
     0
  0
ACAD_PROXY_OBJECT
  5
3B
102
{ACAD_REACTORS
330
2A
102
}
330
2A
100
AcDbProxyObject
 90
      499
 91
      501
 93
      428
310
42529A5D1D195C93D999914409028333333333333E33F0000000000000F9010790141107004050150A41D405064090741402480A0350
1001
ACAD
1000
AcDbSavedByObjectVersion
1070
     0
  0
ACAD_PROXY_OBJECT
  5
38
102
{ACAD_REACTORS
330
2A
102
}
330
2A
100
AcDbProxyObject
 90
      499
 91
      501
 93
      444
310
42D31A5B995C185D1D195C9B90E409028333333333333E33F0000000000000F9010790141107004050750841D405064090741402483A0350
1001
ACAD
1000
AcDbSavedByObjectVersion
1070
     0
  0
ACAD_PROXY_OBJECT
  5
3C
102
{ACAD_REACTORS
330
2A
102
}
330
2A
100
AcDbProxyObject
 90
      499
 91
      501
 93
      444
310
42D3DD995C9A185B99D3D999915409028333333333333E33F0000000000000F9010790141107004050150941D405064090741402480A0350
1001
ACAD
1000
AcDbSavedByObjectVersion
1070
     0
  0
ACAD_PROXY_OBJECT
  5
33
102
{ACAD_REACTORS
330
2A
102
}
330
2A
100
AcDbProxyObject
 90
      499
 91
      501
 93
      428
310
425499585B1A5CDD1A58D08409038333333333333E33F0000000000000F9010740A907004050150800405405064090740C02480A1B40
1001
ACAD
1000
AcDbSavedByObjectVersion
1070
     0
  0
ACAD_PROXY_OBJECT
  5
42
102
{ACAD_REACTORS
330
2A
102
}
330
2A
100
AcDbProxyObject
 90
      499
 91
      501
 93
      420
310
4194DA1859195911B40902404333333333333E33F0000000000000F9010740A41107004050150800405405064090840C02480A0B40
1001
ACAD
1000
AcDbSavedByObjectVersion
1070
     0
  0
ACAD_PROXY_OBJECT
  5
41
102
{ACAD_REACTORS
330
2A
102
}
330
2A
100
AcDbProxyObject
 90
      499
 91
      501
 93
      516
310
4454DA18591959081DDA5D1A08195919D95CD1A40902404333333333333E33F0000000000000F901074090142907004050250800405405064090740C02480A0B40
1001
ACAD
1000
AcDbSavedByObjectVersion
1070
     0
  0
ACAD_PROXY_OBJECT
  5
3E
102
{ACAD_REACTORS
330
2A
102
}
330
2A
100
AcDbProxyObject
 90
      499
 91
      501
 93
      532
310
4394DA1859195CC81BD98811DC985E5174090240C333333333333E33F0000000000000F901079024090741D01000000000000111010841D405064090740C02480A0340
1001
ACAD
1000
AcDbSavedByObjectVersion
1070
     0
  0
ACAD_PROXY_OBJECT
  5
3F
102
{ACAD_REACTORS
330
2A
102
}
330
2A
100
AcDbProxyObject
 90
      499
 91
      501
 93
      476
310
41D4DAD95D18DA1E51840502408333333333333E33F0000000000000F901079024090741D01000000000000111010B41D405064090741802480A0340
1001
ACAD
1000
AcDbSavedByObjectVersion
1070
     0
  0
ACAD_PROXY_OBJECT
  5
37
102
{ACAD_REACTORS
330
2A
102
}
330
2A
100
AcDbProxyObject
 90
      499
 91
      501
 93
      412
310
41D51A1A58DAD95B90D409028333333333333E33F0000000000000F9010790141107004050150C41D405064090741402480A0350
1001
ACAD
1000
AcDbSavedByObjectVersion
1070
     0
  0
ACAD_PROXY_OBJECT
  5
30
102
{ACAD_REACTORS
330
2A
102
}
330
2A
100
AcDbProxyObject
 90
      499
 91
      501
 93
      420
310
4255DA5C99599C985B595059028333333333333E33F0000000000000F90107901411070040501600405405064090740C02480A0340
1001
ACAD
1000
AcDbSavedByObjectVersion
1070
     0
  0
ACAD_PROXY_OBJECT
  5
40
102
{ACAD_REACTORS
330
2A
102
}
330
2A
100
AcDbProxyObject
 90
      499
 91
      501
 93
      404
310
41560B54985E51940902404000000000000E03F0000000000000F9010740501907004050150841D405064090740C02480A1B40
1001
ACAD
1000
AcDbSavedByObjectVersion
1070
     0
  0
XRECORD
  5
107
102
{ACAD_REACTORS
330
FD
102
}
330
FD
100
AcDbXrecord
340
0
  0
XRECORD
  5
106
102
{ACAD_REACTORS
330
FD
102
}
330
FD
100
AcDbXrecord
 90
        0
  0
XRECORD
  5
11D
102
{ACAD_REACTORS
330
FD
102
}
330
FD
100
AcDbXrecord
1000
DSTYLE
1002
{
1070
   179
 70
     1
1070
   143
 40
0.03937
1070
   285
 70
     8
1070
   176
 70
     7
1070
   177
 70
     7
1070
   178
 70
     7
1070
   371
 70
    13
1070
   372
 70
    13
1070
   340
340
72
1070
   140
 40
3.5
1070
   288
 70
     1
1002
}
  0
XRECORD
  5
108
102
{ACAD_REACTORS
330
FD
102
}
330
FD
100
AcDbXrecord
  1
{31727635-b0e4-3662-b077-f27732393736}
  0
XRECORD
  5
100
102
{ACAD_REACTORS
330
FD
102
}
330
FD
100
AcDbXrecord
  1

  0
XRECORD
  5
105
102
{ACAD_REACTORS
330
FD
102
}
330
FD
100
AcDbXrecord
 90
        4
  0
XRECORD
  5
102
102
{ACAD_REACTORS
330
FD
102
}
330
FD
100
AcDbXrecord
340
1A
  0
XRECORD
  5
104
102
{ACAD_REACTORS
330
FD
102
}
330
FD
100
AcDbXrecord
 90
    10269
  0
XRECORD
  5
103
102
{ACAD_REACTORS
330
FD
102
}
330
FD
100
AcDbXrecord
340
19
  0
XRECORD
  5
10A
102
{ACAD_REACTORS
330
FD
102
}
330
FD
100
AcDbXrecord
 40
0.0
  0
XRECORD
  5
10D
102
{ACAD_REACTORS
330
FD
102
}
330
FD
100
AcDbXrecord
340
0
  0
XRECORD
  5
113
102
{ACAD_REACTORS
330
FD
102
}
330
FD
100
AcDbXrecord
 10
0.0
 20
0.0
 30
0.0
  0
XRECORD
  5
10F
102
{ACAD_REACTORS
330
FD
102
}
330
FD
100
AcDbXrecord
 10
0.0
 20
0.0
 30
0.0
  0
XRECORD
  5
112
102
{ACAD_REACTORS
330
FD
102
}
330
FD
100
AcDbXrecord
 10
0.0
 20
0.0
 30
0.0
  0
XRECORD
  5
110
102
{ACAD_REACTORS
330
FD
102
}
330
FD
100
AcDbXrecord
 10
0.0
 20
0.0
 30
0.0
  0
XRECORD
  5
111
102
{ACAD_REACTORS
330
FD
102
}
330
FD
100
AcDbXrecord
 10
0.0
 20
0.0
 30
0.0
  0
XRECORD
  5
10E
102
{ACAD_REACTORS
330
FD
102
}
330
FD
100
AcDbXrecord
 10
0.0
 20
0.0
 30
0.0
  0
XRECORD
  5
10B
102
{ACAD_REACTORS
330
FD
102
}
330
FD
100
AcDbXrecord
340
0
  0
XRECORD
  5
10C
102
{ACAD_REACTORS
330
FD
102
}
330
FD
100
AcDbXrecord
 70
     0
  0
XRECORD
  5
101
102
{ACAD_REACTORS
330
FD
102
}
330
FD
100
AcDbXrecord
  1

  0
XRECORD
  5
FE
102
{ACAD_REACTORS
330
FD
102
}
330
FD
100
AcDbXrecord
 90
        1
  0
XRECORD
  5
FF
102
{ACAD_REACTORS
330
FD
102
}
330
FD
100
AcDbXrecord
 90
       70
  0
XRECORD
  5
116
102
{ACAD_REACTORS
330
FD
102
}
330
FD
100
AcDbXrecord
340
0
  0
XRECORD
  5
11C
102
{ACAD_REACTORS
330
FD
102
}
330
FD
100
AcDbXrecord
 10
0.0
 20
0.0
 30
0.0
  0
XRECORD
  5
118
102
{ACAD_REACTORS
330
FD
102
}
330
FD
100
AcDbXrecord
 10
0.0
 20
0.0
 30
0.0
  0
XRECORD
  5
11B
102
{ACAD_REACTORS
330
FD
102
}
330
FD
100
AcDbXrecord
 10
0.0
 20
0.0
 30
0.0
  0
XRECORD
  5
119
102
{ACAD_REACTORS
330
FD
102
}
330
FD
100
AcDbXrecord
 10
0.0
 20
0.0
 30
0.0
  0
XRECORD
  5
11A
102
{ACAD_REACTORS
330
FD
102
}
330
FD
100
AcDbXrecord
 10
0.0
 20
0.0
 30
0.0
  0
XRECORD
  5
117
102
{ACAD_REACTORS
330
FD
102
}
330
FD
100
AcDbXrecord
 10
0.0
 20
0.0
 30
0.0
  0
XRECORD
  5
114
102
{ACAD_REACTORS
330
FD
102
}
330
FD
100
AcDbXrecord
340
0
  0
XRECORD
  5
115
102
{ACAD_REACTORS
330
FD
102
}
330
FD
100
AcDbXrecord
 70
     0
  0
XRECORD
  5
109
102
{ACAD_REACTORS
330
FD
102
}
330
FD
100
AcDbXrecord
  1
{FAEB1C32-E019-11D5-929B-00C0DF256EC4}
  0
DICTIONARYVAR
  5
12A
102
{ACAD_REACTORS
330
6E
102
}
330
6E
100
DictionaryVariables
280
     0
  1
1:1
  0
DICTIONARYVAR
  5
124
102
{ACAD_REACTORS
330
6E
102
}
330
6E
100
DictionaryVariables
280
     0
  1
3.500000
  0
DICTIONARYVAR
  5
125
102
{ACAD_REACTORS
330
6E
102
}
330
6E
100
DictionaryVariables
280
     0
  1
MM.LIN
  0
DICTIONARYVAR
  5
11F
102
{ACAD_REACTORS
330
6E
102
}
330
6E
100
DictionaryVariables
280
     0
  1
Standard
  0
DICTIONARYVAR
  5
11E
102
{ACAD_REACTORS
330
6E
102
}
330
6E
100
DictionaryVariables
280
     0
  1
Onshape-Standard
  0
DICTIONARYVAR
  5
126
102
{ACAD_REACTORS
330
6E
102
}
330
6E
100
DictionaryVariables
280
     0
  1
2
  0
DICTIONARYVAR
  5
127
102
{ACAD_REACTORS
330
6E
102
}
330
6E
100
DictionaryVariables
280
     0
  1
1
  0
DICTIONARYVAR
  5
12B
102
{ACAD_REACTORS
330
6E
102
}
330
6E
100
DictionaryVariables
280
     0
  1
1
  0
DICTIONARYVAR
  5
6F
102
{ACAD_REACTORS
330
6E
102
}
330
6E
100
DictionaryVariables
280
     0
  1
0
  0
DICTIONARYVAR
  5
121
102
{ACAD_REACTORS
330
6E
102
}
330
6E
100
DictionaryVariables
280
     0
  1
80.000000
  0
DICTIONARYVAR
  5
120
102
{ACAD_REACTORS
330
6E
102
}
330
6E
100
DictionaryVariables
280
     0
  1
5.000000
  0
XRECORD
  5
B8
102
{ACAD_REACTORS
330
B7
102
}
330
B7
100
AcDbXrecord
 70
     4
  0
XRECORD
  5
BB
102
{ACAD_REACTORS
330
B7
102
}
330
B7
100
AcDbXrecord
 90
        0
  0
XRECORD
  5
BA
102
{ACAD_REACTORS
330
B7
102
}
330
B7
100
AcDbXrecord
 90
        0
  0
XRECORD
  5
B9
102
{ACAD_REACTORS
330
B7
102
}
330
B7
100
AcDbXrecord
 90
        1
  0
DICTIONARY
  5
12E
330
45
100
AcDbDictionary
280
     1
  3
ACAD_XREC_ROUNDTRIP
360
12F
  0
DICTIONARY
  5
12C
330
44
100
AcDbDictionary
280
     1
  3
ACAD_XREC_ROUNDTRIP
360
12D
  0
DICTIONARY
  5
130
330
46
100
AcDbDictionary
280
     1
  3
ACAD_XREC_ROUNDTRIP
360
131
  0
XRECORD
  5
12F
102
{ACAD_REACTORS
330
12E
102
}
330
12E
100
AcDbXrecord
102
MATERIAL
148
0.0
149
0.0
149
0.0
 93
        0
 94
      127
282
     0
 72
     1
 77
     1
171
     1
175
     1
179
     1
273
     0
  0
XRECORD
  5
12D
102
{ACAD_REACTORS
330
12C
102
}
330
12C
100
AcDbXrecord
102
MATERIAL
148
0.0
149
0.0
149
0.0
 93
        0
 94
      127
282
     0
 72
     1
 77
     1
171
     1
175
     1
179
     1
273
     0
  0
XRECORD
  5
131
102
{ACAD_REACTORS
330
130
102
}
330
130
100
AcDbXrecord
102
MATERIAL
148
0.0
149
0.0
149
0.0
 93
        0
 94
      127
282
     0
 72
     1
 77
     1
171
     1
175
     1
179
     1
273
     0
  0
ENDSEC
  0
EOF
